
<svg xmlns="http://www.w3.org/2000/svg" viewBox="0 0 55 55">
<style type="text/css">
	.st0{fill:#5F6B19;stroke:#5F6B19;stroke-width:1.25;stroke-miterlimit:10;}
	.st1{fill:#768928;}
	.st2{fill:#809832;}
	.st3{fill:#FFE14E;}
	.st4{fill:#F7D744;}
	.st5{fill:url(#SVGID_1_);}
	.st6{fill:#FEFD55;}
	.st7{fill:url(#SVGID_2_);}
	.st8{fill:#A51B05;}
	.st9{fill:#910C03;}
	.st10{fill:#7B0201;}
	.st11{fill:none;}
	.st12{fill:#6F091E;}
	.st13{fill:#B7102F;}
	.st14{fill:#DD293E;}
	.st15{fill:#970F22;}
	.st16{fill:#140000;}
	.st17{fill:#A50914;}
	.st18{fill:#B72330;}
	.st19{fill:#F9DD09;}
	.st20{fill:#1B2712;}
	.st21{fill:#F6F6F6;}
	.st22{fill:#36171C;}
	.st23{fill:url(#SVGID_3_);}
	.st24{fill:url(#SVGID_4_);}
	.st25{fill:url(#SVGID_5_);}
	.st26{fill:url(#SVGID_6_);}
	.st27{fill:url(#SVGID_7_);}
	.st28{fill:#FFFFFF;}
	.st29{fill:url(#SVGID_8_);}
	.st30{fill:url(#SVGID_9_);}
	.st31{fill:url(#SVGID_10_);}
	.st32{fill:url(#SVGID_11_);}
	.st33{fill:#3D631B;}
	.st34{fill:#4A7C2A;}
	.st35{fill:#7BC642;}
	.st36{fill:#5A9A30;}
	.st37{fill:url(#SVGID_12_);}
	.st38{fill:#599B31;}
	.st39{fill:#599A32;}
	.st40{fill:#F9F9F9;}
	.st41{fill:url(#SVGID_13_);}
	.st42{fill:url(#SVGID_14_);}
	.st43{fill:url(#SVGID_15_);}
	.st44{fill:url(#SVGID_16_);}
	.st45{fill:url(#SVGID_17_);}
	.st46{fill:#6B4B1B;}
	.st47{fill:#A47522;}
	.st48{fill:#9A6C22;}
	.st49{fill:#895E21;}
	.st50{fill:#292537;}
	.st51{fill:#3F3653;}
	.st52{fill:#857C9B;}
	.st53{fill:#3E3753;}
	.st54{fill:#443B56;}
	.st55{fill:#252133;}
	.st56{fill:#2DBF7D;}
	.st57{fill:#453E57;}
	.st58{fill:#433952;}
	.st59{fill:none;stroke:#768928;stroke-width:1.25;stroke-miterlimit:10;}
</style>
<path class="st0" d="M45.8,54.4H9.2c-3.6,0-6.5-2.9-6.5-6.5V11.2c0-3.6,2.9-6.5,6.5-6.5h36.7c3.6,0,6.5,2.9,6.5,6.5v36.7
	C52.4,51.4,49.4,54.4,45.8,54.4z"/>
<g>
	<path class="st1" d="M45.8,50.4H9.2c-3.6,0-6.5-2.9-6.5-6.5V7.2c0-3.6,2.9-6.5,6.5-6.5h36.7c3.6,0,6.5,2.9,6.5,6.5v36.7
		C52.4,47.5,49.4,50.4,45.8,50.4z"/>
	<path class="st2" d="M11.8,32.5L26,31.3c0.5,0,0.9-0.5,0.9-1l-1.3-14.5c0-0.5-0.5-0.9-1-0.9l-14.2,1.2c-0.5,0-0.9,0.5-0.9,1
		l1.3,14.5C10.8,32.1,11.3,32.5,11.8,32.5z"/>
	<path class="st2" d="M26.1,32.2l-14.2,1.2c-0.5,0-0.9,0.5-0.9,1L12.3,49c0,0.5,0.5,0.9,1,0.9l14.2-1.2c0.5,0,0.9-0.5,0.9-1
		l-1.3-14.5C27.1,32.6,26.6,32.2,26.1,32.2z"/>
	<path class="st2" d="M10.3,15.1l14.2-1.2c0.5,0,0.9-0.5,0.9-1l-1-12.1H8.7c-0.2,0-0.4,0-0.6,0l1.2,13.5
		C9.3,14.8,9.8,15.2,10.3,15.1z"/>
	<path class="st2" d="M27.6,49.6l-9.9,0.9h11C28.6,49.9,28.1,49.5,27.6,49.6z"/>
	<path class="st2" d="M29,31l14.2-1.2c0.5,0,0.9-0.5,0.9-1l-1.3-14.5c0-0.5-0.5-0.9-1-0.9l-14.2,1.2c-0.5,0-0.9,0.5-0.9,1L28,30.1
		C28,30.7,28.5,31.1,29,31z"/>
	<path class="st2" d="M43.3,30.7L29.1,32c-0.5,0-0.9,0.5-0.9,1l1.3,14.5c0,0.5,0.5,0.9,1,0.9l14.2-1.2c0.5,0,0.9-0.5,0.9-1
		l-1.3-14.5C44.3,31.1,43.8,30.7,43.3,30.7z"/>
	<path class="st2" d="M27.5,13.6l14.2-1.2c0.5,0,0.9-0.5,0.9-1L41.7,0.7H25.4l1,12C26.5,13.3,27,13.7,27.5,13.6z"/>
	<path class="st2" d="M44.8,48.1l-14.2,1.2c-0.5,0-0.9,0.5-0.9,1l0,0.1H46L45.8,49C45.8,48.5,45.3,48.1,44.8,48.1z"/>
	<path class="st2" d="M44,14.1l1.3,14.5c0,0.5,0.5,0.9,1,0.9l6.1-0.5V12.5l-7.5,0.6C44.3,13.1,43.9,13.6,44,14.1z"/>
	<path class="st2" d="M45.5,31.5L46.7,46c0,0.5,0.5,0.9,1,0.9l4.2-0.4c0.2-0.7,0.4-1.4,0.4-2.1V29.9l-6,0.5
		C45.8,30.5,45.5,31,45.5,31.5z"/>
	<path class="st2" d="M44.8,12.1l7.6-0.7V6.8c0-3.3-2.7-6-6-6h-3.5l0.9,10.5C43.8,11.8,44.3,12.2,44.8,12.1z"/>
	<path class="st2" d="M51.5,47.5l-3.6,0.3c-0.5,0-0.9,0.5-0.9,1l0.1,1.5C49,50.1,50.6,49,51.5,47.5z"/>
	<path class="st2" d="M9.9,31.7L8.7,17.2c0-0.5-0.5-0.9-1-0.9l-5,0.4v16.5L9,32.7C9.6,32.7,10,32.2,9.9,31.7z"/>
	<path class="st2" d="M11.4,49.1l-1.3-14.5c0-0.5-0.5-0.9-1-0.9l-6.5,0.6v10.2c0,3,2.2,5.5,5,5.9l2.9-0.2
		C11.1,50.1,11.5,49.6,11.4,49.1z"/>
	<path class="st2" d="M8.4,14.3L7.2,0.9c-2.6,0.6-4.6,3-4.6,5.9v9l4.9-0.4C8.1,15.3,8.5,14.9,8.4,14.3z"/>
</g>
<g>
	<path class="st3" d="M29.8,7.2c-2.5-1.2-7.2-2.8-8-2.9C21,4.2,16,4.2,15.4,4.6c-0.6,0.4-3.7,4.1-3.8,5c-0.1,0.9,1,3.5,1.2,3.8
		c0.2,0.3,1.1,1.1,1.9,1.4c0.8,0.4,4.4,1.7,6,1.7s4.5-0.5,5.3-0.7c1.4,0.3,17.5,4.1,18.3,4.3c-0.5-3.6-0.6-6.5-0.6-6.9
		c-2.9-0.5-14.1-3.4-15.1-3.6c-0.6-0.7-2-2.2-2.3-2.5C27.7,7,29.8,7.2,29.8,7.2z"/>
	<path class="st4" d="M44.6,21.8c-0.6-4-0.8-6.3-0.8-7.1c-2.4,1.7-32.1,20.7-32.7,21.1c0.3,2.4,0.7,5.3,0.8,6
		C15.1,39.9,43.2,22.4,44.6,21.8z"/>
	<linearGradient id="SVGID_1_" gradientUnits="userSpaceOnUse" x1="10.5183" y1="39.8391" x2="48.9694" y2="39.8391">
		<stop  offset="0" style="stop-color:#F7D744"/>
		<stop  offset="1" style="stop-color:#F7D744;stop-opacity:0"/>
	</linearGradient>
	<path class="st5" d="M10.5,33.4c4.1,0.9,35.3,9.1,38.5,10c-0.5,2.4-2.1,2.8-3.4,2.9c-2.7-0.3-32.6-6.4-34-6.8
		C11.2,36.6,10.5,33.4,10.5,33.4z"/>
	<path class="st6" d="M43.7,12.4c0.5,3.3,1.1,10.3,1.1,11.2c-1.1-2-2.4-5.4-2.4-6.2S43.6,13.9,43.7,12.4z"/>
	<path class="st6" d="M10.1,32.4c0.7,4.8,1.4,11,1.5,11.9c1.2-3.1,1.3-6.7,1.1-7.4C12.6,36.2,10.7,33.3,10.1,32.4z"/>
	<polygon class="st6" points="11.4,32.4 11.8,32.7 13.6,29.5 12.5,28.8 	"/>
	<polygon class="st6" points="13.3,43.8 15,45.1 14.1,46.2 13.1,44.3 	"/>
	<polygon class="st6" points="40.5,27.3 43.2,24.6 42.7,23.6 40,26 	"/>
	<polygon class="st6" points="28.6,17.7 27.1,18 25.7,17 27.2,17 	"/>
	<polygon class="st6" points="23.2,18.7 19.4,18.2 15.7,16 21.3,17.5 	"/>
</g>
<g>
	<linearGradient id="SVGID_2_" gradientUnits="userSpaceOnUse" x1="12.658" y1="10.4562" x2="26.2358" y2="10.4562">
		<stop  offset="0" style="stop-color:#B92612"/>
		<stop  offset="1" style="stop-color:#F87607"/>
	</linearGradient>
	<path class="st7" d="M15.3,5.6c-0.8,0.3-2.7,3-2.7,3.6c0,0.7,2,4.8,2.7,5.3c0.7,0.4,5.3,1.1,6,0.8c0.7-0.2,4.9-3,4.9-3.8
		s-3-5.2-4.4-5.6C20.5,5.6,16.4,5.3,15.3,5.6z"/>
	<path class="st8" d="M19.8,7.2c-0.4-0.2-1.2,0.5-1.2,0.7s1.3,1.8,1.5,1.7c0.2-0.1,1.1-0.5,1-0.9C21,8.3,20.4,7.4,19.8,7.2z"/>
	<path class="st9" d="M20.2,12.5c-0.2,0.7-1.2,1.9-1.5,1.9c-0.3,0-2.2,0-2.6-0.4c-0.4-0.4-1.3-1.1-1.1-1.5
		C15.5,12.5,19.6,12.8,20.2,12.5z"/>
	<path class="st10" d="M19.3,10.3c0.3-0.2-2.3-2.8-4.7-3c-0.9,1.1-1.1,3.4-0.7,4.2C15,11.7,18.2,11.2,19.3,10.3z"/>
</g>
<g>
	<path class="st11" d="M51.3,44.5c-2.1,0.2-4-1.4-4.2-3.6l0-0.2c0-0.1,0-0.2,0-0.3c0,0,0-0.1,0-0.1l0-0.2c0-0.2,0-0.3,0-0.5
		c-0.1-0.1-0.2-0.2-0.2-0.3c0.1,0.1,0.2,0.1,0.2,0.1c0-0.2,0.1-0.4,0.1-0.5c-0.2-0.3-0.4-0.6-0.7-1c0.1,0.2,0.4,0.2,0.9,0.4
		c0,0,0,0,0-0.1c-0.2-0.3-0.5-1-0.7-1.5c0.2,0,0.6,0.3,1.1,0.7c0,0,0-0.1,0.1-0.1c-0.4-0.6-1.1-1.8-1.4-2.6c-0.3-1-0.6-3.9-0.3-3.9
		c0.3,0,1.3,0.7,1.7,1.1c0.1-0.5,0.2-0.9,0.4-1.2c0.8-1.3,2.3-1.8,4-2.1c0.1,0,0.1,0,0.2,0v-1l-3.2,0.4c-2.1,0.2-4-1.3-4.2-3.4
		l0-0.2c0-0.1,0-0.2,0-0.3c0,0,0-0.1,0-0.1l0-0.1c0-0.2,0-0.3,0-0.5c-0.1-0.1-0.2-0.2-0.2-0.3c0.1,0,0.2,0.1,0.2,0
		c0-0.2,0.1-0.3,0.1-0.5c-0.2-0.2-0.4-0.6-0.7-1c0.1,0.2,0.4,0.2,0.9,0.4c0,0,0,0,0-0.1c-0.2-0.3-0.5-1-0.7-1.4
		c0.2,0,0.6,0.3,1.1,0.7c0,0,0,0,0.1-0.1c-0.4-0.6-1.1-1.7-1.4-2.5C44,18,43.7,15.3,44,15.3c0.3,0,1.3,0.6,1.7,1
		c0.1-0.4,0.2-0.8,0.4-1.1c0.8-1.2,2.3-1.7,4-1.9c0.8-0.1,1.6-0.1,2.3,0v-2.7l-5.2,0.6c-2.1,0.2-4-1.3-4.2-3.4l0-0.2
		c0-0.1,0-0.2,0-0.3c0,0,0-0.1,0-0.1l0-0.1c0-0.2,0-0.3,0-0.5c-0.1-0.1-0.2-0.2-0.2-0.3c0.1,0,0.2,0.1,0.2,0c0-0.2,0.1-0.3,0.1-0.5
		c-0.2-0.2-0.4-0.6-0.7-1c0.1,0.2,0.4,0.2,0.9,0.4c0,0,0,0,0-0.1c-0.2-0.3-0.5-1-0.7-1.4c0.2,0,0.6,0.3,1.1,0.7c0,0,0,0,0.1-0.1
		c-0.4-0.6-1.1-1.7-1.4-2.5c-0.1-0.3-0.2-0.8-0.3-1.3H8.7c-1.6,0-3,0.6-4,1.6c0.5,0.3,0.9,1.1,1.3,2.1c0,0,0,0,0,0
		C5.8,4.1,5.7,3.8,5.6,3.6C5.9,3.2,6.7,2.3,7,2.3c0.3,0,0.6,2.7,0.5,3.7C7.4,6.7,7,7.9,6.7,8.5c0,0,0.1,0,0.1,0.1
		C7.2,8.2,7.5,8,7.7,7.9C7.6,8.1,7.5,8.6,7.5,9.2c0,0,0,0,0,0c0.1,0,0.3,0,0.5-0.1c0,0.1-0.1,0.4-0.2,0.6C7.9,9.8,8,10,8.1,10.2
		c0,0,0.1,0,0.1,0c0,0,0,0.1,0,0.1c0.1,0.2,0.1,0.5,0.2,0.7l0,0.1c0,0.1,0,0.2,0,0.3c0,0,0,0.1,0,0.1l0,0.2c0.2,2.1-1.3,4-3.4,4.2
		l-2.3,0.3V18c1.4-0.1,2.8,0.2,3.7,0.6c0.5,0.3,1,1.1,1.3,2.1c0,0,0,0,0,0c-0.1-0.3-0.2-0.5-0.3-0.7c0.3-0.5,1.1-1.4,1.4-1.4
		c0.3,0,0.6,2.7,0.5,3.7c-0.1,0.7-0.5,1.9-0.8,2.6c0,0,0.1,0,0.1,0.1c0.4-0.4,0.7-0.7,0.8-0.7c-0.1,0.2-0.2,0.8-0.2,1.3c0,0,0,0,0,0
		c0.1,0,0.3,0,0.5-0.1c0,0.1-0.1,0.4-0.2,0.6c0.1,0.2,0.2,0.4,0.3,0.6c0,0,0.1,0,0.1,0c0,0,0,0.1,0,0.1c0.1,0.2,0.1,0.5,0.2,0.7
		l0,0.1c0,0.1,0,0.2,0,0.3c0,0,0,0.1,0,0.1l0,0.2c0.2,2.1-1.3,4-3.4,4.2l-4,0.5v2.2c0.2,0,0.3-0.1,0.5-0.1c1.7-0.2,3.4,0,4.5,0.6
		c0.5,0.3,1,1.1,1.3,2.1c0,0,0,0,0,0c-0.1-0.3-0.2-0.5-0.3-0.7c0.3-0.5,1.1-1.4,1.4-1.4c0.3,0,0.6,2.7,0.5,3.7
		c-0.1,0.7-0.5,1.9-0.8,2.6c0,0,0.1,0,0.1,0.1c0.4-0.4,0.7-0.7,0.8-0.7c-0.1,0.2-0.2,0.8-0.2,1.3c0,0,0,0,0,0c0.1,0,0.3,0,0.5-0.1
		c0,0.1-0.1,0.4-0.2,0.6c0.1,0.2,0.2,0.4,0.3,0.6c0,0,0.1,0,0.1,0c0,0,0,0.1,0,0.1c0.1,0.2,0.1,0.5,0.2,0.7l0,0.1c0,0.1,0,0.2,0,0.3
		c0,0,0,0.1,0,0.1l0,0.2c0.2,2.1-1.3,4-3.4,4.2l-2.8,0.3c1,0.7,2.2,1.1,3.5,1.1h37.6c3.3,0,6-2.7,6-6L51.3,44.5z"/>
	<path class="st12" d="M11.4,44.8l0-0.2c0,0,0-0.1,0-0.1c0.1,1.8-1.3,3.4-3.1,3.6l-3.9,0.4c0.3,0.3,0.6,0.5,0.9,0.8L8,49
		C10.1,48.8,11.6,46.9,11.4,44.8z"/>
	<path class="st13" d="M10.5,42.3C10.5,42.3,10.5,42.3,10.5,42.3C10.5,42.3,10.5,42.3,10.5,42.3C10.5,42.3,10.5,42.3,10.5,42.3z"/>
	<polygon class="st13" points="9.5,42.1 9.5,42.1 9.5,42.1 	"/>
	<path class="st13" d="M9.6,42c0.1-0.1,0.2-0.2,0.3-0.3c0,0-0.1,0-0.1-0.1C9.7,41.8,9.6,42,9.6,42z"/>
	<path class="st13" d="M11.3,44.5c0-0.1,0-0.2,0-0.3l0-0.1c0-0.2-0.1-0.5-0.2-0.7c-0.1,0.3-0.4,0.8-0.9,1c0.2,0.1,0.5,0,0.8-0.1
		c0,0.2-0.6,0.8-1.3,1.1c0.1,0.1,0.5,0.2,0.7,0c-0.6,1.1-3.5,2.2-5.3,2.6c-0.4,0.1-0.8,0.1-1.2,0.2c0.1,0.1,0.2,0.3,0.4,0.4l3.9-0.4
		C10.1,47.9,11.4,46.3,11.3,44.5z"/>
	<path class="st13" d="M10.4,43.4c0,0,0.3,0.1,0.7-0.1c-0.1-0.2-0.2-0.4-0.3-0.6C10.7,43,10.6,43.3,10.4,43.4z"/>
	<path class="st14" d="M9.8,36.4c0.3,0.1,0.4,3-0.2,4c0,0.3,0.1,0.9-0.1,1.7c0,0,0,0,0,0c0,0,0,0,0,0c0.1-0.1,0.1-0.2,0.2-0.4
		c0.3-0.7,0.7-1.9,0.8-2.6c0.1-1-0.2-3.7-0.5-3.7c-0.3,0-1.1,0.9-1.4,1.4c0.1,0.2,0.2,0.4,0.3,0.7c0,0,0,0,0,0
		C9.1,37,9.5,36.3,9.8,36.4z"/>
	<path class="st15" d="M9.6,40.4c0.6-1,0.6-3.9,0.2-4c-0.3-0.1-0.7,0.6-0.9,1c0,0,0,0,0,0c0,0,0,0,0,0C9.3,38.5,9.5,39.7,9.6,40.4z"
		/>
	<path class="st16" d="M10.4,45.4c-0.2,0.2-0.5,0.1-0.7,0c0.8-0.2,1.3-0.9,1.3-1.1c-0.3,0.2-0.6,0.2-0.8,0.1c0.5-0.3,0.8-0.8,0.9-1
		c0-0.1,0-0.1,0-0.1c0,0-0.1,0-0.1,0c-0.4,0.2-0.7,0.1-0.7,0.1c0.2-0.1,0.3-0.4,0.4-0.6c0.1-0.3,0.2-0.5,0.2-0.6
		c-0.2,0.1-0.4,0.1-0.5,0.1c0,0,0,0,0,0c0,0,0,0,0,0c0-0.5,0.1-1.1,0.2-1.3c-0.1,0.1-0.5,0.4-0.8,0.7c-0.1,0.1-0.2,0.2-0.3,0.3
		c0,0,0,0,0,0c0,0,0,0,0,0c-0.3,1.4-1.4,3.1-4.9,3.6c-0.7,0.1-1.3,0.1-1.9,0C3,46.6,3.4,47.4,4,48.1c0.4,0,0.8-0.1,1.2-0.2
		C6.9,47.6,9.8,46.4,10.4,45.4z"/>
	<path class="st14" d="M4.6,45.7c3.5-0.4,4.6-2.2,4.9-3.6c0,0,0,0,0,0c0.2-0.7,0.1-1.4,0.1-1.7c-0.1-0.8-0.3-1.9-0.7-2.9
		c-0.3-1-0.8-1.8-1.3-2.1c-1.1-0.5-2.8-0.8-4.5-0.6c-0.2,0-0.3,0-0.5,0.1v1.5c0.4-0.1,0.7-0.2,1-0.2c0.9-0.1,2-0.1,2.9,0.4
		c0-0.1,0-0.2-0.1-0.2c0.1,0,0.4,0.2,0.5,0.5c0.1,0.1,0.1,0.1,0.2,0.2c0.1-0.3,0.1-0.8-0.3-1.1c1.8,0.7,1.7,1.7,1.2,2.3
		c0.3,0.5,0.5,1.1,0.6,1.8c0.7,3.7-2.6,5.2-3.8,5.4c-0.5,0.1-1.3,0.2-2.2-0.1c0,0.1,0,0.2,0.1,0.3C3.3,45.8,3.9,45.7,4.6,45.7z
		 M4.3,35.5c-0.3,0-0.6-0.4-0.7-0.7c0.2-0.1,1-0.1,1.3,0C4.9,35.1,4.7,35.5,4.3,35.5z"/>
	<path class="st17" d="M3.6,34.9c0,0.3,0.3,0.7,0.7,0.7c0.3,0,0.6-0.5,0.6-0.7C4.6,34.8,3.9,34.8,3.6,34.9z"/>
	<path class="st18" d="M7.2,37.1C7.1,37,7.1,36.9,7,36.9c0,0.1,0.1,0.2,0.1,0.3C7.1,37.2,7.2,37.1,7.2,37.1z"/>
	<path class="st18" d="M3.9,38.5c0.1,0,0.3,0,0.4,0.1c0.8-0.2,1.8-0.7,2.1-0.9c0.2-0.2,0.3-0.6,0.2-1.1c-0.9-0.5-2-0.5-2.9-0.4
		c-0.3,0-0.6,0.1-1,0.2v2.2c0.3,0.1,0.6,0.1,0.8,0.1C3.6,38.6,3.8,38.5,3.9,38.5z"/>
	<path class="st18" d="M5,45.5c1.2-0.2,4.6-1.6,3.8-5.4c-0.1-0.7-0.4-1.3-0.6-1.8c-0.2,0.3-0.5,0.5-0.7,0.6c-0.1,0-0.2,0.1-0.3,0.1
		c0,0,0,0,0,0c0.2,0.3,0,0.9-0.5,1S6,39.6,6.2,39.3c0,0,0,0,0,0c-0.2,0.1-0.5,0.1-0.8,0.2c0.2,0.3,0.3,0.5,0.3,0.6
		c0,0.3-0.8,0.5-1,0.2c0,0-0.1,0-0.1,0c-0.1,0.2-0.2,0.4-0.4,0.5c-0.2,0.1-0.4-0.1-0.5-0.4c-0.1,0-0.1,0-0.2,0c0.1,0,0.1,0,0.2,0.1
		c0,0-0.6,0.6-0.9,0.1v2c1.1-0.3,2.6-0.5,4-0.3C6.9,42,7.2,41.1,7,40.8c0.5,0.4,0.7,1.4,0.7,1.7c0.1,0,0.3,0.1,0.4,0.1L8,43
		c-1.9-0.6-3.9-0.3-5.4,0.1v1.3c0,0.3,0,0.7,0.1,1C3.6,45.6,4.5,45.6,5,45.5z"/>
	<path class="st19" d="M6.2,39.3C6,39.6,6.3,40,6.7,40s0.7-0.6,0.5-1c0,0,0,0,0,0C6.9,39.1,6.6,39.2,6.2,39.3
		C6.2,39.3,6.2,39.3,6.2,39.3z M6.5,39.4C6.5,39.4,6.5,39.4,6.5,39.4c0-0.1,0.1-0.2,0.2-0.2c0.5-0.1,0.4,0.4,0.1,0.5
		c-0.1,0-0.2,0-0.2,0c0,0,0,0,0,0c-0.1,0-0.1,0-0.1-0.1C6.4,39.5,6.4,39.4,6.5,39.4z"/>
	<path class="st20" d="M6.6,39.5C6.6,39.5,6.6,39.6,6.6,39.5c0,0.1,0,0.2,0.1,0.1c0.3-0.1,0.4-0.6-0.1-0.5c-0.1,0-0.2,0.1-0.2,0.2
		C6.5,39.4,6.6,39.4,6.6,39.5z"/>
	<path class="st16" d="M8,43l0.1-0.4c-0.1,0-0.3-0.1-0.4-0.1c0,0,0,0.1,0,0.1c-0.5-0.2-0.9-0.2-1.1-0.2c0,0,0,0,0-0.1
		c-1.5-0.2-2.9,0-4,0.3v0.5C4.1,42.7,6.1,42.4,8,43z"/>
	<path class="st21" d="M7.8,42.5C7.8,42.5,7.8,42.5,7.8,42.5c0-0.4-0.3-1.4-0.7-1.8c0.2,0.3-0.1,1.2-0.3,1.5c0,0,0,0,0,0.1
		C6.9,42.4,7.3,42.4,7.8,42.5z"/>
	<path class="st22" d="M3.5,38.7c-0.2,0-0.5-0.1-0.8-0.1v1C2.8,39.2,3.2,38.9,3.5,38.7z"/>
	<path class="st22" d="M6.4,37.7c-0.2,0.2-1.3,0.7-2.1,0.9c0.5,0.1,0.9,0.5,1.1,0.9c0.3-0.1,0.5-0.1,0.8-0.2
		c0.4-0.1,0.7-0.2,0.9-0.3c0.1,0,0.2-0.1,0.3-0.1c0.2-0.1,0.5-0.3,0.7-0.6c0.5-0.7,0.6-1.7-1.2-2.3c0.4,0.3,0.4,0.8,0.3,1.1
		c0,0.1-0.1,0.1-0.1,0.1c0-0.1,0-0.2-0.1-0.3c-0.1-0.3-0.4-0.5-0.5-0.5c0,0.1,0,0.2,0.1,0.2C6.6,37.1,6.6,37.5,6.4,37.7z"/>
	<path class="st22" d="M5,39.8c-0.2,0-0.3,0.3-0.5,0.6c0,0,0.1,0,0.1,0c0,0,0,0,0,0C5.1,40.2,5.4,39.8,5,39.8z"/>
	<path class="st22" d="M3.1,40c-0.3,0-0.1,0.3,0.3,0.4c0.1,0,0.1,0,0.2,0C3.5,40.3,3.3,40,3.1,40z"/>
	<path class="st18" d="M5.3,39.9c0,0.2-0.2,0.3-0.6,0.5c0.2,0.3,1,0,1-0.2c0-0.1-0.1-0.4-0.3-0.6c-0.2,0-0.4,0.1-0.6,0.1
		C5.1,39.7,5.3,39.8,5.3,39.9z"/>
	
		<linearGradient id="SVGID_3_" gradientUnits="userSpaceOnUse" x1="12.8292" y1="38.4488" x2="12.8292" y2="40.8089" gradientTransform="matrix(0.9937 -0.1117 0.1117 0.9937 -12.0276 1.6111)">
		<stop  offset="0" style="stop-color:#B72330"/>
		<stop  offset="9.535676e-02" style="stop-color:#BC2432"/>
		<stop  offset="0.6555" style="stop-color:#D4283B"/>
		<stop  offset="1" style="stop-color:#DD293E"/>
	</linearGradient>
	<path class="st23" d="M5.3,39.9c0,0.2-0.2,0.3-0.6,0.5c0.2,0.3,1,0,1-0.2c0-0.1-0.1-0.4-0.3-0.6c-0.2,0-0.4,0.1-0.6,0.1
		C5.1,39.7,5.3,39.8,5.3,39.9z"/>
	<path class="st18" d="M3.6,40.5c0.2,0.2,0.3,0.4,0.5,0.4c0.2-0.1,0.3-0.3,0.4-0.5c-0.1,0-0.3,0.1-0.5,0.1
		C3.9,40.5,3.8,40.5,3.6,40.5z"/>
	
		<linearGradient id="SVGID_4_" gradientUnits="userSpaceOnUse" x1="11.6867" y1="38.4488" x2="11.6867" y2="40.8089" gradientTransform="matrix(0.9937 -0.1117 0.1117 0.9937 -12.0276 1.6111)">
		<stop  offset="0" style="stop-color:#B72330"/>
		<stop  offset="9.535676e-02" style="stop-color:#BC2432"/>
		<stop  offset="0.6555" style="stop-color:#D4283B"/>
		<stop  offset="1" style="stop-color:#DD293E"/>
	</linearGradient>
	<path class="st24" d="M3.6,40.5c0.2,0.2,0.3,0.4,0.5,0.4c0.2-0.1,0.3-0.3,0.4-0.5c-0.1,0-0.3,0.1-0.5,0.1
		C3.9,40.5,3.8,40.5,3.6,40.5z"/>
	<path class="st18" d="M3.6,40.5c-0.1,0-0.1,0-0.2-0.1c-0.3,0-0.6-0.1-0.6-0.3c0-0.1,0.1-0.2,0.2-0.3c-0.1,0-0.3,0-0.4,0v0.8
		C3,41.1,3.6,40.5,3.6,40.5z"/>
	
		<linearGradient id="SVGID_5_" gradientUnits="userSpaceOnUse" x1="10.6898" y1="38.4488" x2="10.6898" y2="40.8089" gradientTransform="matrix(0.9937 -0.1117 0.1117 0.9937 -12.0276 1.6111)">
		<stop  offset="0" style="stop-color:#B72330"/>
		<stop  offset="9.535676e-02" style="stop-color:#BC2432"/>
		<stop  offset="0.6555" style="stop-color:#D4283B"/>
		<stop  offset="1" style="stop-color:#DD293E"/>
	</linearGradient>
	<path class="st25" d="M3.6,40.5c-0.1,0-0.1,0-0.2-0.1c-0.3,0-0.6-0.1-0.6-0.3c0-0.1,0.1-0.2,0.2-0.3c-0.1,0-0.3,0-0.4,0v0.8
		C3,41.1,3.6,40.5,3.6,40.5z"/>
	<path class="st18" d="M3.5,38.7c0.1,0,0.2,0,0.3,0c0.1,0,0.3,0,0.5-0.1c-0.1,0-0.3-0.1-0.4-0.1C3.8,38.5,3.6,38.6,3.5,38.7z"/>
	
		<linearGradient id="SVGID_6_" gradientUnits="userSpaceOnUse" x1="11.6886" y1="38.4489" x2="11.6886" y2="40.8089" gradientTransform="matrix(0.9937 -0.1117 0.1117 0.9937 -12.0276 1.6111)">
		<stop  offset="0" style="stop-color:#B72330"/>
		<stop  offset="9.535676e-02" style="stop-color:#BC2432"/>
		<stop  offset="0.6555" style="stop-color:#D4283B"/>
		<stop  offset="1" style="stop-color:#DD293E"/>
	</linearGradient>
	<path class="st26" d="M3.5,38.7c0.1,0,0.2,0,0.3,0c0.1,0,0.3,0,0.5-0.1c-0.1,0-0.3-0.1-0.4-0.1C3.8,38.5,3.6,38.6,3.5,38.7z"/>
	<path class="st22" d="M2.8,40.2c0,0.2,0.3,0.3,0.6,0.3C3,40.3,2.8,40.1,3.1,40c0.2,0,0.3,0.2,0.5,0.5c0.2,0,0.3,0,0.5,0
		c0.2,0,0.3,0,0.5-0.1c0.1-0.3,0.3-0.6,0.5-0.6c0.3,0,0.1,0.4-0.3,0.5c0,0,0,0,0,0c0.4-0.1,0.6-0.3,0.6-0.5c0-0.1-0.2-0.2-0.5-0.3
		c0.2,0,0.4-0.1,0.6-0.1c-0.2-0.4-0.6-0.8-1.1-0.9c-0.2,0.1-0.4,0.1-0.5,0.1c-0.1,0-0.2,0-0.3,0c-0.3,0.2-0.6,0.5-0.8,0.9v0.3
		c0.1,0,0.3,0,0.4,0C2.9,40,2.8,40.1,2.8,40.2z"/>
	
		<linearGradient id="SVGID_7_" gradientUnits="userSpaceOnUse" x1="11.7184" y1="38.4488" x2="11.7184" y2="40.8089" gradientTransform="matrix(0.9937 -0.1117 0.1117 0.9937 -12.0276 1.6111)">
		<stop  offset="0" style="stop-color:#B72330"/>
		<stop  offset="9.535676e-02" style="stop-color:#BC2432"/>
		<stop  offset="0.6555" style="stop-color:#D4283B"/>
		<stop  offset="1" style="stop-color:#DD293E"/>
	</linearGradient>
	<path class="st27" d="M2.8,40.2c0,0.2,0.3,0.3,0.6,0.3C3,40.3,2.8,40.1,3.1,40c0.2,0,0.3,0.2,0.5,0.5c0.2,0,0.3,0,0.5,0
		c0.2,0,0.3,0,0.5-0.1c0.1-0.3,0.3-0.6,0.5-0.6c0.3,0,0.1,0.4-0.3,0.5c0,0,0,0,0,0c0.4-0.1,0.6-0.3,0.6-0.5c0-0.1-0.2-0.2-0.5-0.3
		c0.2,0,0.4-0.1,0.6-0.1c-0.2-0.4-0.6-0.8-1.1-0.9c-0.2,0.1-0.4,0.1-0.5,0.1c-0.1,0-0.2,0-0.3,0c-0.3,0.2-0.6,0.5-0.8,0.9v0.3
		c0.1,0,0.3,0,0.4,0C2.9,40,2.8,40.1,2.8,40.2z"/>
	<path class="st28" d="M6.5,39.6C6.5,39.6,6.5,39.6,6.5,39.6c0.1,0,0.1-0.1,0.1-0.1c0-0.1-0.1-0.1-0.1-0.1c0,0,0,0,0,0
		c-0.1,0-0.1,0.1-0.1,0.1C6.4,39.6,6.4,39.6,6.5,39.6z"/>
	<path class="st12" d="M10,28l0-0.2c0,0,0-0.1,0-0.1c0.1,1.8-1.3,3.4-3.1,3.6l-4.3,0.5v0.9l4-0.5C8.8,32,10.3,30.1,10,28z"/>
	<path class="st13" d="M9.2,25.5C9.2,25.5,9.2,25.5,9.2,25.5C9.2,25.5,9.2,25.5,9.2,25.5C9.2,25.5,9.2,25.5,9.2,25.5z"/>
	<path class="st13" d="M10,27.7c0-0.1,0-0.2,0-0.3l0-0.1c0-0.2-0.1-0.5-0.2-0.7c-0.1,0.3-0.4,0.8-0.9,1c0.2,0.1,0.5,0,0.8-0.1
		c0,0.2-0.6,0.8-1.3,1.1c0.1,0.1,0.5,0.2,0.7,0c-0.6,1.1-3.5,2.2-5.3,2.6c-0.4,0.1-0.8,0.1-1.2,0.2v0.5l4.3-0.5
		C8.7,31.1,10.1,29.5,10,27.7z"/>
	<path class="st13" d="M9.1,26.6c0,0,0.3,0.1,0.7-0.1c-0.1-0.2-0.2-0.4-0.3-0.6C9.4,26.2,9.2,26.5,9.1,26.6z"/>
	<polygon class="st13" points="8.2,25.3 8.2,25.3 8.2,25.3 	"/>
	<path class="st13" d="M8.2,25.3c0.1-0.1,0.2-0.2,0.3-0.3c0,0-0.1,0-0.1-0.1C8.4,25,8.3,25.2,8.2,25.3z"/>
	<path class="st14" d="M8.5,19.6c0.3,0.1,0.4,3-0.2,4c0,0.3,0.1,0.9-0.1,1.7c0,0,0,0,0,0c0,0,0,0,0,0c0.1-0.1,0.1-0.2,0.2-0.4
		c0.3-0.7,0.7-1.9,0.8-2.6c0.1-1-0.2-3.7-0.5-3.7c-0.3,0-1.1,0.9-1.4,1.4c0.1,0.2,0.2,0.4,0.3,0.7c0,0,0,0,0,0
		C7.8,20.2,8.2,19.5,8.5,19.6z"/>
	<path class="st15" d="M8.3,23.6c0.6-1,0.6-3.9,0.2-4c-0.3-0.1-0.7,0.6-0.9,1c0,0,0,0,0,0c0,0,0,0,0,0C8,21.7,8.2,22.9,8.3,23.6z"/>
	<path class="st16" d="M9.1,28.6c-0.2,0.2-0.5,0.1-0.7,0c0.8-0.2,1.3-0.9,1.3-1.1c-0.3,0.2-0.6,0.2-0.8,0.1c0.5-0.3,0.8-0.8,0.9-1
		c0-0.1,0-0.1,0-0.1c0,0-0.1,0-0.1,0c-0.4,0.2-0.7,0.1-0.7,0.1c0.2-0.1,0.3-0.4,0.4-0.6c0.1-0.3,0.2-0.5,0.2-0.6
		c-0.2,0.1-0.4,0.1-0.5,0.1c0,0,0,0,0,0c0,0,0,0,0,0c0-0.5,0.1-1.1,0.2-1.3c-0.1,0.1-0.5,0.4-0.8,0.7c-0.1,0.1-0.2,0.2-0.3,0.3
		c0,0,0,0,0,0c0,0,0,0,0,0c-0.3,1.4-1.4,3.1-4.9,3.6c-0.2,0-0.5,0-0.7,0.1v2.4c0.4,0,0.8-0.1,1.2-0.2C5.6,30.8,8.5,29.7,9.1,28.6z"
		/>
	<path class="st14" d="M8.2,25.3C8.2,25.3,8.2,25.3,8.2,25.3c0.2-0.8,0.1-1.4,0.1-1.7c-0.1-0.8-0.3-1.9-0.7-2.9
		c-0.3-1-0.8-1.8-1.3-2.1C5.4,18.1,4,17.9,2.6,18v0.1c0.3,0,0.8,0,1,0c0,0.2-0.3,0.7-0.6,0.7c-0.1,0-0.3-0.1-0.4-0.2v0.8
		c0.9-0.1,1.8,0,2.6,0.5c0-0.1,0-0.2-0.1-0.2c0.1,0,0.4,0.2,0.5,0.5c0.1,0.1,0.1,0.1,0.2,0.2C6,20,6,19.5,5.6,19.2
		c1.8,0.7,1.7,1.7,1.2,2.3c0.3,0.5,0.5,1.1,0.6,1.8c0.7,3.7-2.6,5.2-3.8,5.4c-0.3,0-0.6,0.1-1,0.1v0.1c0.2,0,0.4,0,0.7-0.1
		C6.9,28.4,7.9,26.7,8.2,25.3z"/>
	<path class="st17" d="M3.6,18.1c-0.2,0-0.7,0-1,0v0.5c0.1,0.1,0.2,0.2,0.4,0.2C3.3,18.8,3.6,18.3,3.6,18.1z"/>
	<path class="st18" d="M5.9,20.3c-0.1-0.1-0.1-0.1-0.2-0.2c0,0.1,0.1,0.2,0.1,0.3C5.8,20.4,5.9,20.4,5.9,20.3z"/>
	<path class="st18" d="M5.1,20.9c0.2-0.2,0.3-0.6,0.2-1.1c-0.8-0.4-1.7-0.5-2.6-0.5v2.4c0.1,0,0.2,0,0.4,0.1
		C3.8,21.6,4.8,21.1,5.1,20.9z"/>
	<path class="st18" d="M3.6,28.7c1.2-0.2,4.6-1.6,3.8-5.4c-0.1-0.7-0.4-1.3-0.6-1.8c-0.2,0.3-0.5,0.5-0.7,0.6
		c-0.1,0-0.2,0.1-0.3,0.1c0,0,0,0,0,0c0.2,0.3,0,0.9-0.5,1c-0.4,0-0.7-0.4-0.5-0.7c0,0,0,0,0,0c-0.2,0.1-0.5,0.1-0.8,0.2
		c0.2,0.3,0.3,0.5,0.3,0.6c0,0.3-0.8,0.5-1,0.2c0,0-0.1,0-0.1,0C3.2,23.8,3,24,2.8,24.1c-0.1,0-0.1,0-0.2,0v1.5
		c0.9-0.1,1.8-0.2,2.7-0.1c0.3-0.3,0.5-1.2,0.3-1.5c0.5,0.4,0.7,1.4,0.7,1.7c0.1,0,0.3,0.1,0.4,0.1l-0.1,0.4
		c-1.4-0.4-2.8-0.4-4.1-0.2v2.7C3,28.8,3.4,28.7,3.6,28.7z"/>
	<path class="st19" d="M4.9,22.5c-0.2,0.3,0.1,0.7,0.5,0.7c0.4,0,0.7-0.6,0.5-1c0,0,0,0,0,0C5.6,22.3,5.3,22.4,4.9,22.5
		C4.9,22.5,4.9,22.5,4.9,22.5z M5.2,22.6C5.2,22.6,5.2,22.6,5.2,22.6c0-0.1,0.1-0.2,0.2-0.2c0.5-0.1,0.4,0.4,0.1,0.5
		c-0.1,0-0.2,0-0.2,0c0,0,0,0,0,0c-0.1,0-0.1,0-0.1-0.1C5.1,22.7,5.1,22.6,5.2,22.6z"/>
	<path class="st20" d="M5.3,22.7C5.3,22.8,5.3,22.8,5.3,22.7c0,0.1,0,0.2,0.1,0.1c0.3-0.1,0.4-0.6-0.1-0.5c-0.1,0-0.2,0.1-0.2,0.2
		C5.2,22.6,5.3,22.7,5.3,22.7z"/>
	<path class="st16" d="M6.7,26.2l0.1-0.4c-0.1,0-0.3-0.1-0.4-0.1c0,0,0,0.1,0,0.1c-0.5-0.2-0.9-0.2-1.1-0.2c0,0,0,0,0-0.1
		c-0.9-0.1-1.9-0.1-2.7,0.1V26C3.9,25.8,5.3,25.8,6.7,26.2z"/>
	<path class="st21" d="M6.4,25.8C6.4,25.7,6.4,25.7,6.4,25.8c0-0.4-0.3-1.4-0.7-1.8c0.2,0.3-0.1,1.2-0.3,1.5c0,0,0,0,0,0.1
		C5.6,25.6,5.9,25.6,6.4,25.8z"/>
	<path class="st22" d="M5.1,20.9c-0.2,0.2-1.3,0.7-2.1,0.9c0.5,0.1,0.9,0.5,1.1,0.9c0.3-0.1,0.5-0.1,0.8-0.2
		c0.4-0.1,0.7-0.2,0.9-0.3c0.1,0,0.2-0.1,0.3-0.1c0.2-0.1,0.5-0.3,0.7-0.6c0.5-0.7,0.6-1.7-1.2-2.3C6,19.5,6,20,5.9,20.3
		c0,0.1-0.1,0.1-0.1,0.1c0-0.1,0-0.2-0.1-0.3c-0.1-0.3-0.4-0.5-0.5-0.5c0,0.1,0,0.2,0.1,0.2C5.3,20.3,5.3,20.8,5.1,20.9z"/>
	<path class="st22" d="M3.7,23c-0.2,0-0.3,0.3-0.5,0.6c0,0,0.1,0,0.1,0c0,0,0,0,0,0C3.8,23.4,4.1,23,3.7,23z"/>
	<path class="st18" d="M4,23.1c0,0.2-0.2,0.3-0.6,0.5c0.2,0.3,1,0,1-0.2c0-0.1-0.1-0.4-0.3-0.6c-0.2,0-0.4,0.1-0.6,0.1
		C3.8,22.9,4,23,4,23.1z"/>
	
		<linearGradient id="SVGID_8_" gradientUnits="userSpaceOnUse" x1="13.4011" y1="21.6273" x2="13.4011" y2="23.9874" gradientTransform="matrix(0.9937 -0.1117 0.1117 0.9937 -12.0276 1.6111)">
		<stop  offset="0" style="stop-color:#B72330"/>
		<stop  offset="9.535676e-02" style="stop-color:#BC2432"/>
		<stop  offset="0.6555" style="stop-color:#D4283B"/>
		<stop  offset="1" style="stop-color:#DD293E"/>
	</linearGradient>
	<path class="st29" d="M4,23.1c0,0.2-0.2,0.3-0.6,0.5c0.2,0.3,1,0,1-0.2c0-0.1-0.1-0.4-0.3-0.6c-0.2,0-0.4,0.1-0.6,0.1
		C3.8,22.9,4,23,4,23.1z"/>
	<path class="st18" d="M2.6,21.7v0.1c0.1,0,0.2,0,0.4-0.1C2.9,21.8,2.8,21.8,2.6,21.7z"/>
	
		<linearGradient id="SVGID_9_" gradientUnits="userSpaceOnUse" x1="12.4921" y1="21.6273" x2="12.4921" y2="23.9874" gradientTransform="matrix(0.9937 -0.1117 0.1117 0.9937 -12.0276 1.6111)">
		<stop  offset="0" style="stop-color:#B72330"/>
		<stop  offset="9.535676e-02" style="stop-color:#BC2432"/>
		<stop  offset="0.6555" style="stop-color:#D4283B"/>
		<stop  offset="1" style="stop-color:#DD293E"/>
	</linearGradient>
	<path class="st30" d="M2.6,21.7v0.1c0.1,0,0.2,0,0.4-0.1C2.9,21.8,2.8,21.8,2.6,21.7z"/>
	<path class="st18" d="M3.3,23.6c-0.1,0-0.3,0.1-0.5,0.1c-0.1,0-0.1,0-0.2,0v0.3c0.1,0,0.1,0,0.2,0C3,24,3.2,23.8,3.3,23.6z"/>
	
		<linearGradient id="SVGID_10_" gradientUnits="userSpaceOnUse" x1="12.4087" y1="21.6273" x2="12.4087" y2="23.9874" gradientTransform="matrix(0.9937 -0.1117 0.1117 0.9937 -12.0276 1.6111)">
		<stop  offset="0" style="stop-color:#B72330"/>
		<stop  offset="9.535676e-02" style="stop-color:#BC2432"/>
		<stop  offset="0.6555" style="stop-color:#D4283B"/>
		<stop  offset="1" style="stop-color:#DD293E"/>
	</linearGradient>
	<path class="st31" d="M3.3,23.6c-0.1,0-0.3,0.1-0.5,0.1c-0.1,0-0.1,0-0.2,0v0.3c0.1,0,0.1,0,0.2,0C3,24,3.2,23.8,3.3,23.6z"/>
	<path class="st22" d="M3.3,23.6C3.4,23.3,3.5,23,3.7,23c0.3,0,0.1,0.4-0.3,0.5c0,0,0,0,0,0C3.8,23.5,4,23.3,4,23.1
		c0-0.1-0.2-0.2-0.5-0.3c0.2,0,0.4-0.1,0.6-0.1c-0.2-0.4-0.6-0.8-1.1-0.9c-0.1,0-0.2,0.1-0.4,0.1v1.8c0.1,0,0.1,0,0.2,0
		C3,23.7,3.1,23.7,3.3,23.6z"/>
	
		<linearGradient id="SVGID_11_" gradientUnits="userSpaceOnUse" x1="12.9094" y1="21.6273" x2="12.9094" y2="23.9874" gradientTransform="matrix(0.9937 -0.1117 0.1117 0.9937 -12.0276 1.6111)">
		<stop  offset="0" style="stop-color:#B72330"/>
		<stop  offset="9.535676e-02" style="stop-color:#BC2432"/>
		<stop  offset="0.6555" style="stop-color:#D4283B"/>
		<stop  offset="1" style="stop-color:#DD293E"/>
	</linearGradient>
	<path class="st32" d="M3.3,23.6C3.4,23.3,3.5,23,3.7,23c0.3,0,0.1,0.4-0.3,0.5c0,0,0,0,0,0C3.8,23.5,4,23.3,4,23.1
		c0-0.1-0.2-0.2-0.5-0.3c0.2,0,0.4-0.1,0.6-0.1c-0.2-0.4-0.6-0.8-1.1-0.9c-0.1,0-0.2,0.1-0.4,0.1v1.8c0.1,0,0.1,0,0.2,0
		C3,23.7,3.1,23.7,3.3,23.6z"/>
	<path class="st28" d="M5.2,22.8C5.2,22.8,5.2,22.8,5.2,22.8c0.1,0,0.1-0.1,0.1-0.1c0-0.1-0.1-0.1-0.1-0.1c0,0,0,0,0,0
		c-0.1,0-0.1,0.1-0.1,0.1C5.1,22.8,5.1,22.8,5.2,22.8z"/>
	<path class="st33" d="M8.3,11.7l0-0.2c0,0,0-0.1,0-0.1C8.4,13.2,7,14.8,5.2,15l-2.6,0.3v0.9L5,15.9C7.1,15.7,8.6,13.8,8.3,11.7z"/>
	<path class="st34" d="M7.5,9.2C7.5,9.2,7.5,9.2,7.5,9.2C7.5,9.2,7.5,9.2,7.5,9.2C7.5,9.2,7.5,9.2,7.5,9.2z"/>
	<path class="st34" d="M6.5,9c0.1-0.1,0.2-0.2,0.3-0.3c0,0-0.1,0-0.1-0.1C6.7,8.7,6.6,8.9,6.5,9z"/>
	<path class="st34" d="M7.4,10.3c0,0,0.3,0.1,0.7-0.1C8,10,7.9,9.8,7.8,9.6C7.7,9.9,7.5,10.2,7.4,10.3z"/>
	<polygon class="st34" points="6.5,9 6.5,9 6.5,9 	"/>
	<path class="st34" d="M8.3,11.4c0-0.1,0-0.2,0-0.3l0-0.1c0-0.2-0.1-0.5-0.2-0.7c-0.1,0.3-0.4,0.8-0.9,1c0.2,0.1,0.5,0,0.8-0.1
		c0,0.2-0.6,0.8-1.3,1.1c0.1,0.1,0.5,0.2,0.7,0c-0.6,1-3,2-4.7,2.5v0.6L5.2,15C7,14.8,8.4,13.2,8.3,11.4z"/>
	<path class="st35" d="M6.8,3.3c0.3,0.1,0.4,3-0.2,4c0,0.3,0.1,0.9-0.1,1.7c0,0,0,0,0,0c0,0,0,0,0,0c0.1-0.1,0.1-0.2,0.2-0.4
		C7,7.9,7.4,6.7,7.5,5.9c0.1-1-0.2-3.7-0.5-3.7c-0.3,0-1.1,0.9-1.4,1.4c0.1,0.2,0.2,0.4,0.3,0.7c0,0,0,0,0,0
		C6.1,3.9,6.5,3.2,6.8,3.3z"/>
	<path class="st36" d="M6.6,7.3c0.6-1,0.6-3.9,0.2-4c-0.3-0.1-0.7,0.6-0.9,1c0,0,0,0,0,0c0,0,0,0,0,0C6.2,5.4,6.5,6.6,6.6,7.3z"/>
	<path class="st16" d="M7.4,12.3c-0.2,0.2-0.5,0.1-0.7,0C7.5,12.1,8,11.4,8,11.2c-0.3,0.2-0.6,0.2-0.8,0.1c0.5-0.3,0.8-0.8,0.9-1
		c0-0.1,0-0.1,0-0.1c0,0-0.1,0-0.1,0c-0.4,0.2-0.7,0.1-0.7,0.1c0.2-0.1,0.3-0.4,0.4-0.6C7.9,9.4,8,9.1,8,9C7.8,9.2,7.6,9.2,7.5,9.2
		c0,0,0,0,0,0c0,0,0,0,0,0c0-0.5,0.1-1.1,0.2-1.3C7.5,8,7.2,8.2,6.9,8.6C6.8,8.7,6.6,8.8,6.5,9c0,0,0,0,0,0c0,0,0,0,0,0
		c-0.3,1.2-1.2,2.8-3.9,3.4v2.4C4.4,14.3,6.8,13.2,7.4,12.3z"/>
	<path class="st35" d="M4,3.8C4,3.8,4.1,3.9,4.2,4c0.1-0.2,0.1-0.7-0.2-1C3.9,3.1,3.8,3.2,3.7,3.4C3.8,3.5,3.9,3.6,4,3.8z"/>
	<path class="st35" d="M6.5,9C6.5,9,6.5,9,6.5,9c0.2-0.8,0.1-1.4,0.1-1.7C6.5,6.6,6.2,5.4,5.9,4.4c-0.3-1-0.8-1.8-1.3-2.1
		C4.4,2.5,4.2,2.7,4,2.9c1.7,0.7,1.6,1.6,1.1,2.3C5.4,5.7,5.6,6.3,5.8,7c0.6,3.2-1.7,4.6-3.1,5.2v0.2C5.4,11.8,6.2,10.2,6.5,9z"/>
	<path class="st36" d="M4.1,4.1c0,0,0.1-0.1,0.1-0.1C4.1,3.9,4,3.8,4,3.8C4,3.9,4,4,4.1,4.1z"/>
	<path class="st36" d="M3.5,3.6C3.3,4,3.1,4.4,3,4.8c0.2-0.1,0.3-0.2,0.4-0.2C3.6,4.4,3.6,4.1,3.5,3.6z"/>
	<path class="st36" d="M5.8,7C5.6,6.3,5.4,5.7,5.1,5.2C4.9,5.5,4.7,5.7,4.4,5.8c-0.1,0-0.2,0.1-0.3,0.1c0,0,0,0,0,0
		c0.2,0.3,0,0.9-0.5,1C3.3,6.9,3,6.5,3.2,6.2c0,0,0,0,0,0C3,6.2,2.8,6.3,2.7,6.3c0,0.1,0,0.3,0,0.4v0C2.7,6.9,2.7,7,2.7,7
		c0,0,0,0.1-0.1,0.1v2c0.3,0,0.7,0,1,0.1C3.9,8.9,4.2,8,4,7.7C4.5,8,4.7,9,4.7,9.4c0.1,0,0.3,0.1,0.4,0.1L5,9.9
		C4.2,9.7,3.4,9.6,2.6,9.6v2.6C4.1,11.7,6.4,10.2,5.8,7z"/>
	<path class="st19" d="M3.2,6.2C3,6.5,3.3,6.9,3.7,6.9c0.4,0,0.7-0.6,0.5-1c0,0,0,0,0,0C3.9,6,3.6,6.1,3.2,6.2
		C3.2,6.2,3.2,6.2,3.2,6.2z M3.5,6.3C3.5,6.3,3.5,6.3,3.5,6.3c0-0.1,0.1-0.2,0.2-0.2C4.1,5.9,4,6.5,3.7,6.5c-0.1,0-0.2,0-0.2,0
		c0,0,0,0,0,0c-0.1,0-0.1,0-0.1-0.1S3.4,6.3,3.5,6.3z"/>
	<path class="st20" d="M3.6,6.4C3.6,6.4,3.5,6.5,3.6,6.4c0,0.1,0,0.2,0.1,0.1C4,6.5,4.1,5.9,3.6,6.1c-0.1,0-0.2,0.1-0.2,0.2
		C3.5,6.3,3.6,6.3,3.6,6.4z"/>
	<path class="st16" d="M5,9.9l0.1-0.4C5,9.4,4.9,9.4,4.7,9.4c0,0,0,0.1,0,0.1C4.2,9.3,3.9,9.3,3.6,9.2c0,0,0,0,0-0.1
		c-0.3,0-0.7-0.1-1-0.1v0.5C3.4,9.6,4.2,9.7,5,9.9z"/>
	<path class="st21" d="M4.7,9.5C4.7,9.4,4.7,9.4,4.7,9.5C4.7,9,4.5,8,4,7.7C4.2,8,3.9,8.9,3.7,9.2c0,0,0,0,0,0.1
		C3.9,9.3,4.2,9.3,4.7,9.5z"/>
	<path class="st22" d="M4.1,5.9c0.1,0,0.2-0.1,0.3-0.1c0.2-0.1,0.5-0.3,0.7-0.6C5.6,4.5,5.7,3.6,4,2.9c0,0,0,0,0,0
		c0.3,0.3,0.3,0.8,0.2,1c0,0.1-0.1,0.1-0.1,0.1C4,4,4,3.9,4,3.8C3.9,3.6,3.8,3.5,3.7,3.4c0,0.1-0.1,0.1-0.1,0.2c0.1,0.4,0,0.8-0.2,1
		C3.3,4.7,3.2,4.7,3,4.8c-0.2,0.5-0.3,1-0.3,1.5c0.2,0,0.4-0.1,0.5-0.1C3.6,6.1,3.9,6,4.1,5.9z"/>
	<path class="st36" d="M2.6,6.8v0.4c0,0,0.1-0.1,0.1-0.1C2.7,7,2.7,6.9,2.6,6.8z"/>
	
		<linearGradient id="SVGID_12_" gradientUnits="userSpaceOnUse" x1="13.999" y1="5.2207" x2="13.999" y2="7.5807" gradientTransform="matrix(0.9937 -0.1117 0.1117 0.9937 -12.0276 1.6111)">
		<stop  offset="0" style="stop-color:#7BC642"/>
		<stop  offset="1" style="stop-color:#7BC642"/>
	</linearGradient>
	<path class="st37" d="M2.6,6.8v0.4c0,0,0.1-0.1,0.1-0.1C2.7,7,2.7,6.9,2.6,6.8z"/>
	<path class="st28" d="M3.5,6.5C3.5,6.5,3.5,6.5,3.5,6.5c0.1,0,0.1-0.1,0.1-0.1c0-0.1-0.1-0.1-0.1-0.1c0,0,0,0,0,0
		c-0.1,0-0.1,0.1-0.1,0.1S3.4,6.5,3.5,6.5z"/>
	<path class="st33" d="M45,24.3c0,0.1,0,0.2,0,0.3l0,0.2c0.2,2.1,2.1,3.6,4.2,3.4l3.2-0.4v-0.9l-3.6,0.4
		C46.9,27.5,45.2,26.2,45,24.3z"/>
	<path class="st34" d="M45.2,22.2C45.2,22.2,45.2,22.2,45.2,22.2c0,0.1,0.1,0.1,0.1,0.1C45.3,22.3,45.3,22.3,45.2,22.2z"/>
	<path class="st34" d="M45.4,23.3c-0.1,0-0.2-0.2-0.4-0.4c0,0.2-0.1,0.3-0.1,0.5C45,23.3,45.2,23.3,45.4,23.3z"/>
	<path class="st34" d="M46.1,21.8c0-0.1-0.1-0.2-0.1-0.3c0,0.1,0,0.1,0,0.2c-0.1,0-0.2-0.2-0.3-0.3c0,0-0.1,0-0.1,0.1
		C45.8,21.6,46,21.7,46.1,21.8z"/>
	<path class="st34" d="M45.6,25c0.2,0.1,0.4,0.1,0.9,0c-0.2,0-0.9-0.2-1.5-0.7c0.2,0.1,0.5,0,0.7-0.2c-0.1,0-0.5-0.2-0.8-0.5
		c0,0.2,0,0.3,0,0.5l0,0.1c0,0,0,0.1,0,0.1c0.3,1.8,2,3.2,3.8,3l3.6-0.4v-0.5c-0.1,0-0.2,0.1-0.3,0.1C48.9,27.2,45.8,25.4,45.6,25z"
		/>
	<path class="st35" d="M46,21.7c0-0.1,0-0.1,0-0.2c-0.3-0.6-0.4-1.2-0.4-1.5c-0.8-0.9-1.4-3.6-1.1-3.8c0.3-0.2,0.8,0.4,1.1,0.8
		c0-0.2,0.1-0.5,0.1-0.7c-0.4-0.4-1.3-1.1-1.7-1c-0.3,0,0,2.8,0.3,3.7c0.3,0.7,1,1.9,1.4,2.5C45.9,21.6,46,21.7,46,21.7z"/>
	<path class="st36" d="M44.5,16.2c-0.3,0.2,0.3,3,1.1,3.8c0,0,0-0.1,0-0.1c-0.1-0.5-0.2-1.8,0-3C45.3,16.6,44.8,16,44.5,16.2z"/>
	<path class="st16" d="M46.1,21.8c-0.1-0.1-0.3-0.2-0.4-0.3c-0.5-0.4-0.9-0.7-1.1-0.7c0.1,0.4,0.4,1.1,0.7,1.4
		c0.1,0.1,0.1,0.1,0.1,0.1c-0.1,0-0.1,0-0.2-0.1c-0.4-0.2-0.8-0.2-0.9-0.4c0.3,0.4,0.5,0.7,0.7,1c0.2,0.2,0.3,0.3,0.4,0.4
		c-0.2,0.1-0.4,0.1-0.5,0.1c-0.1,0-0.2,0-0.2,0c0.1,0.1,0.2,0.2,0.2,0.3c0.3,0.3,0.6,0.5,0.8,0.5c-0.3,0.1-0.5,0.3-0.7,0.2
		c0.6,0.5,1.3,0.7,1.5,0.7c-0.5,0.1-0.7,0.1-0.9,0c0.2,0.4,3.3,2.2,6.5,1.4c0.1,0,0.2,0,0.3-0.1V24c-0.2,0.1-0.5,0.1-0.8,0.1
		C48.2,24.5,46.7,23.1,46.1,21.8z"/>
	<path class="st35" d="M50.1,13.3c-1.7,0.2-3.2,0.7-4,1.9c-0.2,0.3-0.3,0.7-0.4,1.1c-0.1,0.2-0.1,0.5-0.1,0.7c-0.2,1.2-0.1,2.4,0,3
		c0,0,0,0.1,0,0.1c0,0.3,0.1,0.9,0.4,1.5c0,0.1,0.1,0.2,0.1,0.3c0.6,1.3,2.1,2.7,5.5,2.3c0.3,0,0.5-0.1,0.8-0.1v-0.2
		c-0.2,0.1-0.3,0.1-0.5,0.1c-1.2,0.2-4.6,0.4-5.5-3.8c-0.2-1-0.2-1.8,0-2.4c-1.1-0.9,0.1-2.6,0.7-2.6c-0.3,0.2-0.2,0.9,0,1.2
		c0,0,0.1-0.1,0.1-0.1c0.1-0.2,0.3-0.6,0.5-0.6c0,0,0,0.1-0.1,0.2c0.9-0.8,2.1-1.1,2.8-1.1c0.6-0.1,1.2-0.1,1.8,0v-1.4
		C51.6,13.2,50.8,13.2,50.1,13.3z M48.9,14.5c-0.4,0.1-0.9-0.4-0.9-0.7c0,0,0.7-0.4,1.4-0.4C49.5,13.7,49.3,14.4,48.9,14.5z
		 M51.9,13.3c0,0.2-0.3,0.7-0.6,0.7c-0.3,0-0.6-0.4-0.7-0.7C50.8,13.3,51.6,13.3,51.9,13.3z"/>
	<path class="st38" d="M48,13.9c0,0.3,0.5,0.8,0.9,0.7c0.4-0.1,0.6-0.8,0.5-1.1C48.7,13.5,48,13.9,48,13.9z"/>
	<path class="st39" d="M51.3,14c0.3,0,0.6-0.5,0.6-0.7c-0.3,0-1.1,0-1.3,0C50.6,13.6,50.9,14,51.3,14z"/>
	<path class="st36" d="M47.2,16.2c0,0-0.1,0.1-0.1,0.1c0,0,0,0.1,0.1,0.1C47.2,16.4,47.2,16.3,47.2,16.2z"/>
	<path class="st36" d="M51.7,18.8c0,0-0.1,0-0.1,0c-0.1,0.2-0.2,0.4-0.4,0.5c-0.2,0.1-0.4-0.1-0.5-0.4c-0.1,0-0.1,0-0.2,0
		c0.1,0,0.1,0,0.2,0.1c0,0-0.8,0.8-1.1-0.1c0-0.2,0-0.3,0-0.5c-0.2,0-0.4,0-0.6,0c0,0,0,0,0,0c0.1,0.3-0.1,0.7-0.5,0.7
		c-0.4,0-0.9-0.5-0.7-0.8c-0.2,0-0.3-0.1-0.5-0.1c-0.4-0.1-0.6-0.3-0.8-0.4c-0.2,0.7-0.2,1.5,0,2.4c0.9,4.2,4.3,4,5.5,3.8
		c0.1,0,0.3-0.1,0.5-0.1v-2.7c-2.1,0-3.9,0.8-4.6,1.1l-0.2-0.4c0.1-0.1,0.3-0.2,0.5-0.2c-0.2-0.4-0.1-1.2,0.2-1.8
		c0,0.5,0.6,1.1,0.8,1.4c0.9-0.3,2.1-0.6,3.4-0.6v-1.8C52.1,19,51.8,19,51.7,18.8z"/>
	<path class="st36" d="M50.6,14.6c-0.7,0.1-1.9,0.4-2.8,1.1c0,0.2,0,0.5,0.2,0.8c0.3,0.2,1.7,0.5,2.5,0.6c0.2-0.1,0.3-0.2,0.4-0.2
		c0.1,0,0.3,0,0.4,0.1c0.4-0.1,0.8-0.2,1.1-0.4v-1.9C51.8,14.6,51.1,14.6,50.6,14.6z"/>
	<path class="st19" d="M48.5,18.4c0.1,0.1,0,0.3-0.2,0.3c-0.1,0-0.1,0-0.2-0.1c0,0,0,0,0,0c-0.1,0-0.1,0-0.1-0.1
		c0-0.1,0-0.1,0.1-0.1c0,0,0,0,0-0.1c-0.1,0-0.2,0-0.4-0.1C47.5,18.5,48,19,48.4,19c0.4,0,0.6-0.4,0.5-0.7c0,0,0,0,0,0
		C48.8,18.4,48.6,18.4,48.5,18.4z"/>
	<path class="st20" d="M48.1,18.4C48.1,18.4,48.1,18.4,48.1,18.4c0.1,0,0.1,0,0.1,0.1c0,0.1,0,0.1-0.1,0.1c0,0.1,0.1,0.1,0.2,0.1
		c0.2,0,0.3-0.2,0.2-0.3C48.4,18.3,48.2,18.3,48.1,18.4C48.1,18.3,48.1,18.4,48.1,18.4z"/>
	<path class="st16" d="M49.1,21.3c-0.2,0.1-0.5,0.2-1,0.4c0,0,0-0.1,0-0.1c-0.2,0.1-0.3,0.2-0.5,0.2l0.2,0.4
		c0.6-0.4,2.5-1.1,4.6-1.1v-0.5C51.1,20.7,49.9,21,49.1,21.3C49,21.3,49,21.3,49.1,21.3z"/>
	<path class="st40" d="M49.1,21.3C49,21.3,49,21.3,49.1,21.3c-0.3-0.3-0.9-0.9-0.9-1.4c-0.3,0.6-0.3,1.3-0.2,1.8c0,0,0,0.1,0,0.1
		C48.5,21.5,48.9,21.4,49.1,21.3z"/>
	<path class="st22" d="M52.4,17.9v-1.3c-0.4,0.2-0.8,0.3-1.1,0.4C51.7,17.2,52.1,17.5,52.4,17.9z"/>
	<path class="st22" d="M47.7,18.3c0.1,0,0.2,0,0.4,0.1c0.1,0,0.3,0,0.4,0c0.1,0,0.2,0,0.4,0c0.2,0,0.4,0,0.6,0c0.1-0.5,0.6-1,1-1.2
		c-0.8,0-2.2-0.4-2.5-0.6c-0.2-0.3-0.2-0.6-0.2-0.8c0-0.1,0-0.1,0.1-0.2c-0.3,0.1-0.5,0.4-0.5,0.6c0,0.1,0,0.1,0,0.2
		c0,0,0-0.1-0.1-0.1c-0.2-0.3-0.3-1,0-1.2c-0.6,0-1.9,1.6-0.7,2.6c0.2,0.2,0.5,0.3,0.8,0.4C47.4,18.2,47.6,18.2,47.7,18.3z"/>
	<path class="st22" d="M50.5,19c-0.2-0.2-0.3-0.5-0.5-0.5c-0.3,0-0.1,0.3,0.3,0.4C50.4,18.9,50.5,18.9,50.5,19z"/>
	<path class="st22" d="M51.6,18.8c0.4-0.1,0.7-0.5,0.3-0.5c-0.2,0-0.3,0.3-0.5,0.6C51.6,18.8,51.6,18.8,51.6,18.8
		C51.7,18.8,51.6,18.8,51.6,18.8z"/>
	<path class="st36" d="M49.4,18.8c0.2,0.9,1,0.2,1.1,0.1c-0.1,0-0.1,0-0.2-0.1c-0.3,0-0.6-0.1-0.6-0.3c0-0.1,0.1-0.2,0.2-0.3
		c-0.2,0-0.3,0-0.5,0C49.4,18.5,49.4,18.7,49.4,18.8z"/>
	
		<linearGradient id="SVGID_13_" gradientUnits="userSpaceOnUse" x1="59.6888" y1="22.2766" x2="59.6888" y2="24.6367" gradientTransform="matrix(0.9937 -0.1117 0.1117 0.9937 -12.0276 1.6111)">
		<stop  offset="0" style="stop-color:#7BC642"/>
		<stop  offset="1" style="stop-color:#7BC642"/>
	</linearGradient>
	<path class="st41" d="M49.4,18.8c0.2,0.9,1,0.2,1.1,0.1c-0.1,0-0.1,0-0.2-0.1c-0.3,0-0.6-0.1-0.6-0.3c0-0.1,0.1-0.2,0.2-0.3
		c-0.2,0-0.3,0-0.5,0C49.4,18.5,49.4,18.7,49.4,18.8z"/>
	<path class="st36" d="M52.3,18.3c0,0.2-0.2,0.3-0.6,0.5c0.1,0.2,0.5,0.2,0.7,0.1v-0.9c-0.2,0-0.4,0.1-0.6,0.1
		C52,18.1,52.2,18.2,52.3,18.3z"/>
	
		<linearGradient id="SVGID_14_" gradientUnits="userSpaceOnUse" x1="61.7613" y1="22.2766" x2="61.7613" y2="24.6367" gradientTransform="matrix(0.9937 -0.1117 0.1117 0.9937 -12.0276 1.6111)">
		<stop  offset="0" style="stop-color:#7BC642"/>
		<stop  offset="1" style="stop-color:#7BC642"/>
	</linearGradient>
	<path class="st42" d="M52.3,18.3c0,0.2-0.2,0.3-0.6,0.5c0.1,0.2,0.5,0.2,0.7,0.1v-0.9c-0.2,0-0.4,0.1-0.6,0.1
		C52,18.1,52.2,18.2,52.3,18.3z"/>
	<path class="st36" d="M51.1,19.3c0.2-0.1,0.3-0.3,0.4-0.5c-0.1,0-0.3,0.1-0.5,0.1c-0.2,0-0.3,0-0.5,0
		C50.7,19.2,50.9,19.4,51.1,19.3z"/>
	
		<linearGradient id="SVGID_15_" gradientUnits="userSpaceOnUse" x1="60.7373" y1="22.2766" x2="60.7373" y2="24.6367" gradientTransform="matrix(0.9937 -0.1117 0.1117 0.9937 -12.0276 1.6111)">
		<stop  offset="0" style="stop-color:#7BC642"/>
		<stop  offset="1" style="stop-color:#7BC642"/>
	</linearGradient>
	<path class="st43" d="M51.1,19.3c0.2-0.1,0.3-0.3,0.4-0.5c-0.1,0-0.3,0.1-0.5,0.1c-0.2,0-0.3,0-0.5,0
		C50.7,19.2,50.9,19.4,51.1,19.3z"/>
	<path class="st36" d="M51.2,17C51.1,17,51,17,50.8,17c-0.1,0-0.2,0.1-0.4,0.2c0.1,0,0.2,0,0.3,0C50.9,17.1,51,17.1,51.2,17z"/>
	
		<linearGradient id="SVGID_16_" gradientUnits="userSpaceOnUse" x1="60.739" y1="22.2766" x2="60.739" y2="24.6367" gradientTransform="matrix(0.9937 -0.1117 0.1117 0.9937 -12.0276 1.6111)">
		<stop  offset="0" style="stop-color:#7BC642"/>
		<stop  offset="1" style="stop-color:#7BC642"/>
	</linearGradient>
	<path class="st44" d="M51.2,17C51.1,17,51,17,50.8,17c-0.1,0-0.2,0.1-0.4,0.2c0.1,0,0.2,0,0.3,0C50.9,17.1,51,17.1,51.2,17z"/>
	<path class="st22" d="M51.2,17c-0.2,0.1-0.4,0.1-0.5,0.1c-0.1,0-0.2,0-0.3,0c-0.4,0.2-0.8,0.7-1,1.2c0.2,0,0.3,0,0.5,0
		c-0.2,0.1-0.3,0.2-0.2,0.3c0,0.2,0.3,0.3,0.6,0.3c-0.4-0.1-0.6-0.4-0.3-0.4c0.2,0,0.3,0.2,0.5,0.5c0.2,0,0.3,0,0.5,0
		c0.2,0,0.3,0,0.5-0.1c0.1-0.3,0.3-0.6,0.5-0.6c0.3,0,0.1,0.4-0.3,0.5c0,0,0,0,0,0c0.4-0.1,0.6-0.3,0.6-0.5c0-0.1-0.2-0.2-0.5-0.3
		c0.2,0,0.4-0.1,0.6-0.1v0C52.1,17.5,51.7,17.2,51.2,17z"/>
	
		<linearGradient id="SVGID_17_" gradientUnits="userSpaceOnUse" x1="60.6988" y1="22.2766" x2="60.6988" y2="24.6367" gradientTransform="matrix(0.9937 -0.1117 0.1117 0.9937 -12.0276 1.6111)">
		<stop  offset="0" style="stop-color:#7BC642"/>
		<stop  offset="1" style="stop-color:#7BC642"/>
	</linearGradient>
	<path class="st45" d="M51.2,17c-0.2,0.1-0.4,0.1-0.5,0.1c-0.1,0-0.2,0-0.3,0c-0.4,0.2-0.8,0.7-1,1.2c0.2,0,0.3,0,0.5,0
		c-0.2,0.1-0.3,0.2-0.2,0.3c0,0.2,0.3,0.3,0.6,0.3c-0.4-0.1-0.6-0.4-0.3-0.4c0.2,0,0.3,0.2,0.5,0.5c0.2,0,0.3,0,0.5,0
		c0.2,0,0.3,0,0.5-0.1c0.1-0.3,0.3-0.6,0.5-0.6c0.3,0,0.1,0.4-0.3,0.5c0,0,0,0,0,0c0.4-0.1,0.6-0.3,0.6-0.5c0-0.1-0.2-0.2-0.5-0.3
		c0.2,0,0.4-0.1,0.6-0.1v0C52.1,17.5,51.7,17.2,51.2,17z"/>
	<path class="st28" d="M48.2,18.5c0-0.1-0.1-0.1-0.1-0.1c0,0,0,0,0,0c0,0-0.1,0.1-0.1,0.1c0,0.1,0.1,0.1,0.1,0.1c0,0,0,0,0,0
		C48.2,18.6,48.2,18.5,48.2,18.5z"/>
	<path class="st46" d="M42.9,7.4c0,0.1,0,0.2,0,0.3l0,0.2c0.2,2.1,2.1,3.6,4.2,3.4l5.2-0.6V9.7l-5.6,0.6
		C44.9,10.6,43.2,9.2,42.9,7.4z"/>
	<path class="st47" d="M43.2,5.3C43.2,5.3,43.2,5.3,43.2,5.3c0,0.1,0.1,0.1,0.1,0.1C43.3,5.4,43.2,5.3,43.2,5.3z"/>
	<path class="st47" d="M44.1,4.9c0-0.1-0.1-0.2-0.1-0.3c0,0.1,0,0.1,0,0.2c-0.1,0-0.2-0.2-0.3-0.3c0,0-0.1,0-0.1,0.1
		C43.8,4.6,43.9,4.8,44.1,4.9z"/>
	<path class="st47" d="M43.5,8.1c0.2,0.1,0.4,0.1,0.9,0c-0.2,0-0.9-0.2-1.5-0.7c0.2,0.1,0.5,0,0.7-0.2c-0.1,0-0.5-0.2-0.8-0.5
		c0,0.2,0,0.3,0,0.5l0,0.1c0,0,0,0.1,0,0.1c0.3,1.8,2,3.2,3.8,3l5.6-0.6v-1c-0.8,0.3-1.7,0.6-2.3,0.7C46.8,10.2,43.7,8.4,43.5,8.1z"
		/>
	<path class="st47" d="M43.4,6.3c-0.1,0-0.2-0.2-0.4-0.4c0,0.2-0.1,0.3-0.1,0.5C43,6.4,43.1,6.4,43.4,6.3z"/>
	<path class="st48" d="M43.7,4.5c0.1,0.1,0.2,0.3,0.3,0.3c0-0.1,0-0.1,0-0.2c-0.3-0.6-0.4-1.2-0.4-1.5c-0.5-0.5-0.8-1.5-1-2.4H42
		c0.1,0.5,0.2,1,0.3,1.3C42.6,2.7,43.3,3.9,43.7,4.5z"/>
	<path class="st46" d="M43.5,3c-0.1-0.4-0.1-1.3-0.1-2.3h-0.9c0.2,0.9,0.6,1.9,1,2.4C43.5,3.1,43.5,3,43.5,3z"/>
	<path class="st16" d="M44.1,4.9c-0.1-0.1-0.3-0.2-0.4-0.3c-0.5-0.4-0.9-0.7-1.1-0.7C42.6,4.3,43,5,43.2,5.3
		c0.1,0.1,0.1,0.1,0.1,0.1c-0.1,0-0.1,0-0.2-0.1c-0.4-0.2-0.8-0.2-0.9-0.4c0.3,0.4,0.5,0.7,0.7,1c0.2,0.2,0.3,0.3,0.4,0.4
		c-0.2,0.1-0.4,0.1-0.5,0.1c-0.1,0-0.2,0-0.2,0c0.1,0.1,0.2,0.2,0.2,0.3c0.3,0.3,0.6,0.5,0.8,0.5c-0.3,0.1-0.5,0.3-0.7,0.2
		c0.6,0.5,1.3,0.7,1.5,0.7c-0.5,0.1-0.7,0.1-0.9,0c0.2,0.4,3.3,2.2,6.5,1.4c0.7-0.2,1.5-0.4,2.3-0.7v-2c0-0.2,0-0.3,0-0.5
		c-0.7,0.4-1.6,0.7-2.8,0.8C46.2,7.6,44.7,6.2,44.1,4.9z"/>
	<path class="st48" d="M43.5,3c0,0,0,0.1,0,0.1c0,0.3,0.1,0.9,0.4,1.5c0,0.1,0.1,0.2,0.1,0.3c0.6,1.3,2.1,2.7,5.5,2.3
		c1.2-0.1,2.1-0.5,2.8-0.8c0-0.2,0-0.3-0.1-0.5c-0.9,0.7-1.9,1.1-2.4,1.2c-1.2,0.2-4.6,0.4-5.5-3.8c-0.2-1-0.2-1.8,0-2.4
		c0,0,0,0-0.1,0h-0.9C43.4,1.7,43.5,2.6,43.5,3z"/>
	<path class="st47" d="M49.5,1.9c-0.1,0.2-0.2,0.4-0.4,0.5c-0.2,0.1-0.4-0.1-0.5-0.4c-0.1,0-0.1,0-0.2,0c0.1,0,0.1,0,0.2,0.1
		c0,0-0.8,0.8-1.1-0.1c0-0.2,0-0.3,0-0.5c-0.2,0-0.4,0-0.6,0c0,0,0,0,0,0c0.1,0.3-0.1,0.7-0.5,0.7c-0.4,0-0.9-0.5-0.7-0.8
		c-0.2,0-0.3-0.1-0.5-0.1c-0.4-0.1-0.6-0.3-0.8-0.4c-0.2,0.7-0.2,1.5,0,2.4c0.9,4.2,4.3,4,5.5,3.8c0.6-0.1,1.6-0.5,2.4-1.2
		c-0.1-0.5-0.2-1.1-0.5-1.5c-2.6-0.4-5.3,0.6-6.1,1l-0.2-0.4c0.1-0.1,0.3-0.2,0.5-0.2c-0.2-0.4-0.1-1.2,0.2-1.8
		c0,0.5,0.6,1.1,0.8,1.4c1.2-0.4,2.9-0.7,4.6-0.5C51.2,3.1,50.6,2.5,50,2c-0.2,0-0.3,0-0.4-0.1C49.6,1.9,49.5,1.9,49.5,1.9z"/>
	<path class="st19" d="M46.3,2.1c0.4,0,0.6-0.4,0.5-0.7c0,0,0,0,0,0c-0.1,0-0.2,0-0.4,0c0.1,0.1,0,0.3-0.2,0.3c-0.1,0-0.1,0-0.2-0.1
		c0,0,0,0,0,0c-0.1,0-0.1,0-0.1-0.1c0-0.1,0-0.1,0.1-0.1c0,0,0,0,0-0.1c-0.1,0-0.2,0-0.4-0.1C45.4,1.6,46,2.1,46.3,2.1z"/>
	<path class="st20" d="M46.1,1.4C46.1,1.4,46.1,1.4,46.1,1.4c0.1,0,0.1,0,0.1,0.1c0,0.1,0,0.1-0.1,0.1c0,0.1,0.1,0.1,0.2,0.1
		c0.2,0,0.3-0.2,0.2-0.3C46.3,1.4,46.2,1.4,46.1,1.4C46,1.4,46,1.4,46.1,1.4z"/>
	<path class="st16" d="M47,4.3C47,4.3,47,4.4,47,4.3c-0.1,0.1-0.5,0.2-1,0.5c0,0,0-0.1,0-0.1c-0.2,0.1-0.3,0.2-0.5,0.2l0.2,0.4
		c0.8-0.5,3.4-1.4,6.1-1c-0.1-0.1-0.1-0.3-0.2-0.4c0,0-0.1,0-0.1,0c0,0,0,0,0-0.1c0,0,0,0,0,0C49.8,3.6,48.2,3.9,47,4.3z"/>
	<path class="st21" d="M51.6,3.9C51.6,3.8,51.6,3.8,51.6,3.9C51.6,3.8,51.5,3.8,51.6,3.9C51.6,3.8,51.6,3.8,51.6,3.9z"/>
	<path class="st40" d="M47,4.4C47,4.4,47,4.3,47,4.4c-0.3-0.3-0.9-0.9-0.9-1.4c-0.3,0.6-0.3,1.3-0.2,1.8c0,0,0,0.1,0,0.1
		C46.5,4.5,46.8,4.4,47,4.4z"/>
	<path class="st22" d="M45.2,1.2c0.2,0,0.3,0.1,0.5,0.1c0.1,0,0.2,0,0.4,0.1c0.1,0,0.3,0,0.4,0c0.1,0,0.2,0,0.4,0c0.2,0,0.4,0,0.6,0
		c0-0.2,0.1-0.4,0.2-0.5c-0.4-0.1-0.9-0.2-1.3-0.2h-2c0,0,0,0,0.1,0C44.6,0.9,44.8,1.1,45.2,1.2z"/>
	<path class="st22" d="M49.6,1.9C49.6,1.9,49.6,1.9,49.6,1.9c0,0,0.1,0,0.1-0.1c0,0-0.1-0.1-0.2-0.1c0,0.1-0.1,0.1-0.1,0.2
		C49.5,1.9,49.6,1.9,49.6,1.9z"/>
	<path class="st22" d="M48.5,2c-0.2-0.2-0.3-0.5-0.5-0.5c-0.3,0-0.1,0.3,0.3,0.4C48.4,2,48.4,2,48.5,2z"/>
	<path class="st49" d="M47.4,1.9c0.2,0.9,1,0.2,1.1,0.1c-0.1,0-0.1,0-0.2-0.1c-0.4-0.1-0.6-0.4-0.3-0.4c0.2,0,0.3,0.2,0.5,0.5
		c0.2,0.2,0.3,0.4,0.5,0.4c0.2-0.1,0.3-0.3,0.4-0.5c0-0.1,0.1-0.1,0.1-0.2C49,1.3,48.4,1,47.7,0.9c-0.1,0.2-0.2,0.4-0.2,0.5
		C47.4,1.6,47.4,1.7,47.4,1.9z"/>
	<path class="st49" d="M49.6,1.9C49.7,2,49.8,2,50,2c-0.1-0.1-0.2-0.1-0.2-0.2C49.7,1.8,49.7,1.8,49.6,1.9
		C49.6,1.9,49.6,1.9,49.6,1.9z"/>
	<path class="st28" d="M46.2,1.5c0-0.1-0.1-0.1-0.1-0.1c0,0,0,0,0,0c0,0-0.1,0.1-0.1,0.1c0,0.1,0.1,0.1,0.1,0.1c0,0,0,0,0,0
		C46.2,1.6,46.2,1.6,46.2,1.5z"/>
	<path class="st50" d="M47,40.5c0,0.1,0,0.2,0,0.3l0,0.2c0.2,2.2,2.1,3.8,4.2,3.6l1.1-0.1c0,0,0,0,0,0v-0.9l-1.5,0.2
		C49,43.9,47.3,42.5,47,40.5z"/>
	<path class="st51" d="M47.3,38.3C47.3,38.3,47.3,38.3,47.3,38.3c0,0.1,0.1,0.1,0.1,0.1C47.4,38.4,47.4,38.3,47.3,38.3z"/>
	<path class="st51" d="M47.7,41.2c0.2,0.1,0.4,0.1,0.9,0c-0.2,0-0.9-0.2-1.5-0.8c0.2,0.1,0.5,0,0.7-0.2c-0.1,0-0.5-0.3-0.8-0.6
		c0,0.2,0,0.3,0,0.5l0,0.2c0,0,0,0.1,0,0.1c0.3,2,2,3.4,3.8,3.2l1.5-0.2v-0.6C49.9,42.9,47.8,41.6,47.7,41.2z"/>
	<path class="st51" d="M48.2,37.9c0-0.1-0.1-0.2-0.1-0.3c0,0.1,0,0.1,0,0.2c-0.1,0-0.2-0.2-0.3-0.3c0,0,0,0.1-0.1,0.1
		C47.9,37.6,48,37.7,48.2,37.9z"/>
	<path class="st51" d="M47.5,39.4c-0.1,0-0.2-0.2-0.4-0.4c0,0.2-0.1,0.3-0.1,0.5C47.1,39.5,47.2,39.4,47.5,39.4z"/>
	<path class="st52" d="M48.1,37.7c0-0.1,0-0.1,0-0.2c-0.3-0.7-0.4-1.2-0.4-1.6c-0.8-0.9-1.4-3.9-1.1-4.1c0.3-0.2,0.8,0.4,1.1,0.8
		c0-0.3,0.1-0.5,0.1-0.8c-0.4-0.4-1.3-1.1-1.7-1.1c-0.3,0,0,2.9,0.3,3.9c0.3,0.8,1,2,1.4,2.6C48,37.6,48.1,37.7,48.1,37.7z"/>
	<path class="st53" d="M46.6,31.9c-0.3,0.2,0.3,3.2,1.1,4.1c0,0,0-0.1,0-0.1c-0.1-0.5-0.2-1.9,0-3.1C47.4,32.3,46.9,31.7,46.6,31.9z
		"/>
	<path class="st16" d="M48.2,37.9c-0.1-0.1-0.3-0.2-0.4-0.4c-0.5-0.4-0.9-0.8-1.1-0.7c0.1,0.5,0.4,1.2,0.7,1.5
		c0.1,0.1,0.1,0.1,0.1,0.1c-0.1,0-0.1,0-0.2-0.1c-0.4-0.2-0.8-0.2-0.9-0.4c0.3,0.4,0.5,0.8,0.7,1c0.2,0.2,0.3,0.4,0.4,0.4
		c-0.2,0.1-0.4,0.1-0.5,0.1c-0.1,0-0.2,0-0.2-0.1c0.1,0.1,0.2,0.2,0.2,0.3c0.3,0.3,0.6,0.5,0.8,0.6c-0.3,0.1-0.5,0.3-0.7,0.2
		c0.6,0.5,1.3,0.7,1.5,0.8c-0.5,0.1-0.7,0.1-0.9,0c0.1,0.3,2.2,1.6,4.7,1.7v-2.6C49.9,40.3,48.7,39,48.2,37.9z"/>
	<path class="st52" d="M48.2,30.8c-0.2,0.3-0.3,0.7-0.4,1.2c-0.1,0.2-0.1,0.5-0.1,0.8c-0.2,1.2-0.1,2.6,0,3.1c0,0,0,0.1,0,0.1
		c0,0.3,0.1,0.9,0.4,1.6c0,0.1,0.1,0.2,0.1,0.3c0.6,1.2,1.7,2.4,4.2,2.5v-0.2c-1.4-0.2-3.2-1-3.9-4.1c-0.2-1-0.2-1.9,0-2.6
		c-1.1-1,0.1-2.7,0.7-2.7c-0.3,0.2-0.2,0.9,0,1.2c0,0,0.1-0.1,0.1-0.1c0.1-0.3,0.3-0.6,0.5-0.7c0,0,0,0.1-0.1,0.2
		c0.8-0.7,1.8-1,2.5-1.2v-1.5c-0.1,0-0.1,0-0.2,0C50.5,29,49,29.5,48.2,30.8z M51,30.1c-0.4,0.1-0.9-0.4-0.9-0.7
		c0,0,0.7-0.4,1.4-0.4C51.6,29.2,51.4,30,51,30.1z"/>
	<path class="st54" d="M50.1,29.4c0,0.3,0.5,0.8,0.9,0.7c0.4-0.1,0.6-0.9,0.5-1.1C50.8,29,50.1,29.4,50.1,29.4z"/>
	<path class="st55" d="M50,32.3c0.3,0.2,1.6,0.5,2.4,0.6v-2.6c-0.7,0.1-1.7,0.5-2.5,1.2C49.8,31.7,49.8,32,50,32.3z"/>
	<path class="st55" d="M51.5,34.7c0-0.2,0-0.3,0-0.5c-0.2,0-0.4,0-0.6,0c0,0,0,0,0,0c0.1,0.3-0.1,0.7-0.5,0.7
		c-0.4,0-0.9-0.5-0.7-0.8c-0.2,0-0.3-0.1-0.5-0.1c-0.4-0.1-0.6-0.3-0.8-0.5c-0.2,0.7-0.2,1.6,0,2.6c0.6,3,2.4,3.9,3.9,4.1v-2.8
		c-1.2,0.3-2.1,0.7-2.5,0.9l-0.3-0.4c0.1-0.1,0.3-0.2,0.5-0.3c-0.2-0.5-0.1-1.3,0.1-1.9c0,0.5,0.6,1.2,0.8,1.5
		c0.4-0.1,0.8-0.3,1.3-0.4V35C52.1,35.2,51.7,35.3,51.5,34.7z"/>
	<path class="st55" d="M49.3,31.9c0,0-0.1,0.1-0.1,0.1c0,0,0,0.1,0.1,0.1C49.3,32.1,49.3,32,49.3,31.9z"/>
	<path class="st56" d="M50.5,34.9c0.4,0,0.6-0.4,0.5-0.7c0,0,0,0,0,0c-0.1,0-0.2,0-0.4,0c0.1,0.2,0,0.4-0.2,0.3
		c-0.1,0-0.1-0.1-0.2-0.1c0,0,0,0,0,0c-0.1,0-0.1,0-0.1-0.1c0-0.1,0-0.1,0.1-0.1c0,0,0,0,0-0.1c-0.1,0-0.2,0-0.4-0.1
		C49.6,34.4,50.1,34.9,50.5,34.9z"/>
	<path class="st20" d="M50.2,34.2C50.2,34.2,50.2,34.2,50.2,34.2c0.1,0,0.1,0,0.1,0.1c0,0.1,0,0.1-0.1,0.1c0,0.1,0.1,0.1,0.2,0.1
		c0.2,0,0.3-0.2,0.2-0.3C50.5,34.2,50.3,34.1,50.2,34.2C50.2,34.1,50.2,34.2,50.2,34.2z"/>
	<path class="st16" d="M51.2,37.3c-0.2,0.1-0.5,0.2-1,0.4c0,0,0-0.1,0-0.1c-0.2,0.1-0.3,0.2-0.5,0.3l0.3,0.4
		c0.4-0.3,1.3-0.7,2.5-0.9v-0.5C51.9,37,51.5,37.1,51.2,37.3C51.1,37.3,51.1,37.3,51.2,37.3z"/>
	<path class="st40" d="M51.2,37.3C51.1,37.3,51.1,37.3,51.2,37.3c-0.3-0.3-0.9-1-0.9-1.5c-0.3,0.6-0.3,1.4-0.1,1.9c0,0,0,0.1,0,0.1
		C50.6,37.5,50.9,37.4,51.2,37.3z"/>
	<path class="st57" d="M49.8,31.4c0-0.1,0-0.2,0.1-0.2c-0.3,0.1-0.5,0.4-0.5,0.7c0,0.1,0,0.2,0,0.2c0,0,0-0.1-0.1-0.1
		c-0.2-0.3-0.3-1,0-1.2c-0.6,0-1.9,1.7-0.7,2.7c0.2,0.2,0.5,0.3,0.8,0.5c0.2,0.1,0.3,0.1,0.5,0.1c0.1,0,0.2,0,0.4,0.1
		c0.1,0,0.3,0,0.4,0c0.1,0,0.2,0,0.4,0c0.2,0,0.4,0,0.6,0c0.1-0.5,0.5-0.9,0.8-1.2v-0.1c-0.8-0.1-2.1-0.4-2.4-0.6
		C49.8,32,49.8,31.7,49.8,31.4z"/>
	<path class="st22" d="M52.4,34.7v-0.3c-0.1-0.1-0.1-0.1-0.2-0.1C51.9,34.3,52,34.6,52.4,34.7z"/>
	<path class="st58" d="M51.6,34.2c0,0.2-0.1,0.3,0,0.5c0.2,0.6,0.6,0.5,0.8,0.3v-0.3c-0.4-0.2-0.5-0.4-0.2-0.4c0.1,0,0.1,0,0.2,0.1
		V33C52,33.3,51.7,33.7,51.6,34.2z"/>
	<path class="st28" d="M50.3,34.3c0-0.1-0.1-0.1-0.1-0.1c0,0,0,0,0,0c0,0-0.1,0.1-0.1,0.1c0,0.1,0.1,0.1,0.1,0.1c0,0,0,0,0,0
		C50.3,34.4,50.3,34.3,50.3,34.3z"/>
</g>
<path class="st59" d="M45.8,50.4H9.2c-3.6,0-6.5-2.9-6.5-6.5V7.2c0-3.6,2.9-6.5,6.5-6.5h36.7c3.6,0,6.5,2.9,6.5,6.5v36.7
	C52.4,47.5,49.4,50.4,45.8,50.4z"/>
</svg>
