<svg xmlns="http://www.w3.org/2000/svg" width="0" height="0">

	<svg id="monster-mask" viewBox="0 0 65 65" cache="keep">
		<path d="M49.3,62.2H15.7c-7.1,0-12.9-5.8-12.9-12.9V15.7c0-7.1,5.8-12.9,12.9-12.9h33.5c7.1,0,12.9,5.8,12.9,12.9v33.5
	C62.2,56.4,56.4,62.2,49.3,62.2z"/>
	</svg>

	<svg id="icon-shield" viewBox="0 0 32 32">
		<style type="text/css">
			.st0{fill:url(#SVGID_1_);}
			.st1{fill:#F58AFF;}
			.st2{fill:#E16DEF;}
			.st3{fill:#D365E0;}
			.st4{fill:#AD4EC1;}
			.st5{fill:#35CAFF;}
			.st6{fill:#2C91DF;}
			.st7{fill:#2063C5;}
		</style>
		<linearGradient id="SVGID_1_" gradientUnits="userSpaceOnUse" x1="1.8789" y1="16" x2="30.1211" y2="16">
			<stop  offset="0" style="stop-color:#F29FF6"/>
			<stop  offset="1" style="stop-color:#FF9CFF"/>
		</linearGradient>
		<path class="st0" d="M4.8,4.6c2.9-1,11.5-4.2,12.1-4.5c1.1,0.6,9.5,6.1,10,6.5c1.3,1.5,3.2,3.7,3.2,5.6s-4.7,11.1-5.9,12.5
			c-1.2,1.4-8.4,7-12.2,7.2c-1.5-0.5-4.3-2.8-4.9-3.5s-5.4-7.8-5.3-12.7C2,10.8,4.4,5.7,4.8,4.6z"/>
		<path class="st1" d="M20.4,21.1c0.8,0.8,3.3,3.1,3.8,3.5c1.1-1.7,5.5-9.5,5.9-12.5c0-2-2.5-4.8-3.2-5.3C27.1,9,25.3,14.5,20.4,21.1z
			"/>
		<path class="st2" d="M7.4,28.7c1.8-0.4,10.7-4.4,12.9-7.6c2,1.8,3.4,3.1,3.8,3.5c-2.2,1.9-8.1,6.9-12.2,7.2
			C10.7,31.2,8.6,29.9,7.4,28.7z"/>
		<path class="st3" d="M23.3,8c-0.3,3.9-3.9,13.3-14.8,16.3c-3.3-3.2-4.6-10.7-2.1-18c3.7-1.1,9-3.3,9.7-3.4C16.9,3.9,21.8,7.1,23.3,8
			z"/>
		<path class="st4" d="M8.5,24.3C4.3,20,3.8,13.6,6.3,6.3c3.5-1.6,9-3.4,9.7-3.4c1.2,0.7,6.5,4.3,7.3,5.1c-2.7-1.5-6.9-3.5-7.4-3.7
			C14.9,4.6,8.9,7.4,8,8C7.1,8.7,4.2,18.2,8.5,24.3z"/>
		<path class="st5" d="M9.5,22c0,0-1.4-11.4-1.3-11.9c0.1-0.5,2.3-2.4,2.9-2.7C10.4,10.1,9.5,19.9,9.5,22z"/>
		<path class="st6" d="M19.6,11.7C16.9,10,12.1,7.6,11,7.4c-0.2,1-1.6,11.3-1.5,14.6C12.8,18.5,18.9,13,19.6,11.7z"/>
		<path class="st7" d="M15.7,6c1.2,1.1,3.7,5,3.9,5.7C18,10.8,12.2,7.6,11,7.4C12.6,6.6,15,6,15.7,6z"/>
	</svg>

</svg>