<svg xmlns="http://www.w3.org/2000/svg" width="0" height="0">

	<svg id="monster-mask" viewBox="0 0 65 65" cache="keep">
		<path d="M49.3,62.2H15.7c-7.1,0-12.9-5.8-12.9-12.9V15.7c0-7.1,5.8-12.9,12.9-12.9h33.5c7.1,0,12.9,5.8,12.9,12.9v33.5 C62.2,56.4,56.4,62.2,49.3,62.2z"/>
	</svg>

	<svg id="target-arrows" viewBox="0 0 10 512">
		<style type="text/css">
			.st0{fill:none;stroke:#fff6;stroke-width:3.5;}
		</style>
		<polyline class="st0" points="16.3,508.1 5,519.4 -6.3,508.1 "/>
		<polyline class="st0" points="16.3,497.8 5,509.1 -6.3,497.8 "/>
		<polyline class="st0" points="16.3,487.6 5,498.9 -6.3,487.6 "/>
		<polyline class="st0" points="16.3,477.4 5,488.7 -6.3,477.4 "/>
		<polyline class="st0" points="16.3,467.1 5,478.4 -6.3,467.1 "/>
		<polyline class="st0" points="16.3,456.9 5,468.2 -6.3,456.9 "/>
		<polyline class="st0" points="16.3,446.6 5,457.9 -6.3,446.6 "/>
		<polyline class="st0" points="16.3,436.4 5,447.7 -6.3,436.4 "/>
		<polyline class="st0" points="16.3,426.2 5,437.5 -6.3,426.2 "/>
		<polyline class="st0" points="16.3,415.9 5,427.2 -6.3,415.9 "/>
		<polyline class="st0" points="16.3,405.7 5,417 -6.3,405.7 "/>
		<polyline class="st0" points="16.3,395.4 5,406.7 -6.3,395.4 "/>
		<polyline class="st0" points="16.3,385.2 5,396.5 -6.3,385.2 "/>
		<polyline class="st0" points="16.3,375 5,386.3 -6.3,375 "/>
		<polyline class="st0" points="16.3,364.7 5,376 -6.3,364.7 "/>
		<polyline class="st0" points="16.3,354.5 5,365.8 -6.3,354.5 "/>
		<polyline class="st0" points="16.3,344.2 5,355.5 -6.3,344.2 "/>
		<polyline class="st0" points="16.3,334 5,345.3 -6.3,334 "/>
		<polyline class="st0" points="16.3,323.8 5,335.1 -6.3,323.8 "/>
		<polyline class="st0" points="16.3,313.5 5,324.8 -6.3,313.5 "/>
		<polyline class="st0" points="16.3,303.3 5,314.6 -6.3,303.3 "/>
		<polyline class="st0" points="16.3,293 5,304.3 -6.3,293 "/>
		<polyline class="st0" points="16.3,282.8 5,294.1 -6.3,282.8 "/>
		<polyline class="st0" points="16.3,272.6 5,283.9 -6.3,272.6 "/>
		<polyline class="st0" points="16.3,262.3 5,273.6 -6.3,262.3 "/>
		<polyline class="st0" points="16.3,252.1 5,263.4 -6.3,252.1 "/>
		<polyline class="st0" points="16.3,241.8 5,253.1 -6.3,241.8 "/>
		<polyline class="st0" points="16.3,231.6 5,242.9 -6.3,231.6 "/>
		<polyline class="st0" points="16.3,221.4 5,232.7 -6.3,221.4 "/>
		<polyline class="st0" points="16.3,211.1 5,222.4 -6.3,211.1 "/>
		<polyline class="st0" points="16.3,200.9 5,212.2 -6.3,200.9 "/>
		<polyline class="st0" points="16.3,190.6 5,201.9 -6.3,190.6 "/>
		<polyline class="st0" points="16.3,180.4 5,191.7 -6.3,180.4 "/>
		<polyline class="st0" points="16.3,170.2 5,181.5 -6.3,170.2 "/>
		<polyline class="st0" points="16.3,159.9 5,171.2 -6.3,159.9 "/>
		<polyline class="st0" points="16.3,149.7 5,161 -6.3,149.7 "/>
		<polyline class="st0" points="16.3,139.4 5,150.7 -6.3,139.4 "/>
		<polyline class="st0" points="16.3,129.2 5,140.5 -6.3,129.2 "/>
		<polyline class="st0" points="16.3,119 5,130.3 -6.3,119 "/>
		<polyline class="st0" points="16.3,108.7 5,120 -6.3,108.7 "/>
		<polyline class="st0" points="16.3,98.5 5,109.8 -6.3,98.5 "/>
		<polyline class="st0" points="16.3,88.2 5,99.5 -6.3,88.2 "/>
		<polyline class="st0" points="16.3,78 5,89.3 -6.3,78 "/>
		<polyline class="st0" points="16.3,67.8 5,79.1 -6.3,67.8 "/>
		<polyline class="st0" points="16.3,57.5 5,68.8 -6.3,57.5 "/>
		<polyline class="st0" points="16.3,47.3 5,58.6 -6.3,47.3 "/>
		<polyline class="st0" points="16.3,37 5,48.3 -6.3,37 "/>
		<polyline class="st0" points="16.3,26.8 5,38.1 -6.3,26.8 "/>
		<polyline class="st0" points="16.3,16.6 5,27.9 -6.3,16.6 "/>
		<polyline class="st0" points="16.3,6.3 5,17.6 -6.3,6.3 "/>
		<polyline class="st0" points="16.3,-4 5,7.4 -6.3,-4 "/>
		<polyline class="st0" points="16.3,-14.2 5,-2.8 -6.3,-14.2 "/>
	</svg>

	<svg id="icon-shield" viewBox="0 0 32 32">
		<style type="text/css">
			.st0{fill:url(#SVGID_1_);}
			.st1{fill:#F58AFF;}
			.st2{fill:#E16DEF;}
			.st3{fill:#D365E0;}
			.st4{fill:#AD4EC1;}
			.st5{fill:#35CAFF;}
			.st6{fill:#2C91DF;}
			.st7{fill:#2063C5;}
		</style>
		<linearGradient id="SVGID_1_" gradientUnits="userSpaceOnUse" x1="1.8789" y1="16" x2="30.1211" y2="16">
			<stop  offset="0" style="stop-color:#F29FF6"/>
			<stop  offset="1" style="stop-color:#FF9CFF"/>
		</linearGradient>
		<path class="st0" d="M4.8,4.6c2.9-1,11.5-4.2,12.1-4.5c1.1,0.6,9.5,6.1,10,6.5c1.3,1.5,3.2,3.7,3.2,5.6s-4.7,11.1-5.9,12.5
			c-1.2,1.4-8.4,7-12.2,7.2c-1.5-0.5-4.3-2.8-4.9-3.5s-5.4-7.8-5.3-12.7C2,10.8,4.4,5.7,4.8,4.6z"/>
		<path class="st1" d="M20.4,21.1c0.8,0.8,3.3,3.1,3.8,3.5c1.1-1.7,5.5-9.5,5.9-12.5c0-2-2.5-4.8-3.2-5.3C27.1,9,25.3,14.5,20.4,21.1z
			"/>
		<path class="st2" d="M7.4,28.7c1.8-0.4,10.7-4.4,12.9-7.6c2,1.8,3.4,3.1,3.8,3.5c-2.2,1.9-8.1,6.9-12.2,7.2
			C10.7,31.2,8.6,29.9,7.4,28.7z"/>
		<path class="st3" d="M23.3,8c-0.3,3.9-3.9,13.3-14.8,16.3c-3.3-3.2-4.6-10.7-2.1-18c3.7-1.1,9-3.3,9.7-3.4C16.9,3.9,21.8,7.1,23.3,8
			z"/>
		<path class="st4" d="M8.5,24.3C4.3,20,3.8,13.6,6.3,6.3c3.5-1.6,9-3.4,9.7-3.4c1.2,0.7,6.5,4.3,7.3,5.1c-2.7-1.5-6.9-3.5-7.4-3.7
			C14.9,4.6,8.9,7.4,8,8C7.1,8.7,4.2,18.2,8.5,24.3z"/>
		<path class="st5" d="M9.5,22c0,0-1.4-11.4-1.3-11.9c0.1-0.5,2.3-2.4,2.9-2.7C10.4,10.1,9.5,19.9,9.5,22z"/>
		<path class="st6" d="M19.6,11.7C16.9,10,12.1,7.6,11,7.4c-0.2,1-1.6,11.3-1.5,14.6C12.8,18.5,18.9,13,19.6,11.7z"/>
		<path class="st7" d="M15.7,6c1.2,1.1,3.7,5,3.9,5.7C18,10.8,12.2,7.6,11,7.4C12.6,6.6,15,6,15.7,6z"/>
	</svg>

</svg>